<?xml version="1.0" encoding="UTF-8"?>
<svg version="1.1" xmlns="http://www.w3.org/2000/svg" width="460" height="460">
<path d="M0 0 C151.8 0 303.6 0 460 0 C460 151.8 460 303.6 460 460 C308.2 460 156.4 460 0 460 C0 308.2 0 156.4 0 0 Z " fill="#000000" transform="translate(0,0)"/>
<path d="M0 0 C8.197116 -0.21348805 16.11972262 0.42825656 24.25 1.4375 C25.38179688 1.57220703 26.51359375 1.70691406 27.6796875 1.84570312 C29.85172851 2.10639891 32.02301482 2.37348801 34.19335938 2.64794922 C36.39191715 2.92372517 38.59390507 3.1721811 40.796875 3.41015625 C44.05272621 4.00970934 46.80413189 5.00461583 49.86621094 6.21972656 C53.69288744 7.61904671 57.66197346 8.45186689 61.625 9.375 C68.8872716 11.1196538 75.75231133 13.23543122 82.7421875 15.87109375 C87.14431041 17.39652963 91.6012523 18.38714265 96.16015625 19.32421875 C98.92530369 19.98222495 101.38153757 20.90787748 104 22 C105.60875 22.433125 105.60875 22.433125 107.25 22.875 C111.70208197 24.21062459 115.78381926 26.063917 120 28 C124.24783167 29.86490171 128.49502925 30.93102389 133 32 C133 32.66 133 33.32 133 34 C133.80566406 34.09539062 134.61132812 34.19078125 135.44140625 34.2890625 C139.84454178 35.16872295 143.78139105 36.70565832 147.9375 38.375 C148.71029297 38.67921875 149.48308594 38.9834375 150.27929688 39.296875 C163.22359496 44.41769622 163.22359496 44.41769622 166.25 46.6875 C169.89555663 48.42742476 172.80530527 48.09110146 176.796875 47.984375 C182.92714024 48.01427873 188.95654246 49.04213643 195 50 C195.7105957 50.1124707 196.42119141 50.22494141 197.15332031 50.34082031 C199.35413975 50.69572811 201.5523488 51.0634999 203.75 51.4375 C204.41016113 51.54747314 205.07032227 51.65744629 205.75048828 51.77075195 C211.66921069 52.81596075 217.12195339 54.39689638 223 56 C223 100.22 223 144.44 223 190 C71.2 190 -80.6 190 -237 190 C-237 161.29 -237 132.58 -237 103 C-200 106 -200 106 -199 107 C-196.67182036 107.36760731 -194.3381615 107.70241581 -192 108 C-191.7525 107.484375 -191.505 106.96875 -191.25 106.4375 C-190.8375 105.633125 -190.425 104.82875 -190 104 C-189.5978125 103.13181641 -189.5978125 103.13181641 -189.1875 102.24609375 C-188.878125 101.62863281 -188.56875 101.01117188 -188.25 100.375 C-187.82460937 99.48941406 -187.82460937 99.48941406 -187.390625 98.5859375 C-185.32222698 96.22703414 -182.97502323 95.87373255 -180 95 C-178.07737016 94.18051843 -176.16070726 93.34690808 -174.25 92.5 C-169.5404961 90.49919213 -165.14389305 89.30317365 -160.11328125 88.46875 C-157.37564479 87.86151086 -155.37566802 86.45179712 -153 85 C-149.75 84.75 -149.75 84.75 -147 85 C-146.67 85.33 -146.34 85.66 -146 86 C-145.67 84.35 -145.34 82.7 -145 81 C-144.01 82.485 -144.01 82.485 -143 84 C-142.51144531 83.25492187 -142.02289063 82.50984375 -141.51953125 81.7421875 C-138.29224079 78.22969463 -135.02703206 76.93356586 -130.6875 75.125 C-125.01639154 72.62337213 -120.67175259 70.4179806 -116.58203125 65.6484375 C-114.00521652 62.96346018 -110.85757585 61.34614516 -107.64453125 59.515625 C-105.01410711 58.00808502 -102.47982532 56.40116121 -99.9375 54.75 C-94.99445429 51.58957566 -89.98240971 48.55654309 -84.9375 45.5625 C-84.18654053 45.11293945 -83.43558105 44.66337891 -82.66186523 44.20019531 C-81.95747314 43.78479492 -81.25308105 43.36939453 -80.52734375 42.94140625 C-79.57976196 42.37981812 -79.57976196 42.37981812 -78.61303711 41.80688477 C-77 41 -77 41 -75 41 C-75 40.34 -75 39.68 -75 39 C-70.545 38.505 -70.545 38.505 -66 38 C-63.66747882 41.74744394 -61.71847335 45.58304495 -59.8125 49.5625 C-55.92367699 57.50587491 -51.54844666 65.93862788 -45 72 C-42.36258039 74.50216732 -40.20009253 76.653686 -38.375 79.8125 C-35.37573618 83.83782776 -31.84738125 86.1959389 -27.74609375 89.0390625 C-25.40989723 90.70729956 -23.3471307 92.42528665 -21.25 94.375 C-15.92225581 99.0100115 -10.11601551 99.22138595 -3.33203125 99.16796875 C-1.0792698 99.00570955 0.86223484 98.72835362 3 98 C4.12516085 96.16715557 4.12516085 96.16715557 5 94 C5.76026489 93.1037793 5.76026489 93.1037793 6.53588867 92.18945312 C8.32943904 89.50735212 8.37379509 87.98427808 8.36328125 84.78125 C8.36263672 83.76546875 8.36199219 82.7496875 8.36132812 81.703125 C8.34521484 80.64609375 8.32910156 79.5890625 8.3125 78.5 C8.31572266 77.47390625 8.31894531 76.4478125 8.32226562 75.390625 C8.27914808 69.15034021 7.64960636 63.27124107 6.52807617 57.13867188 C5.3392943 50.0730317 4.82526349 42.90633082 4.14453125 35.77734375 C3.46762191 23.04422442 3.46762191 23.04422442 0 11 C-0.13765648 7.33283144 -0.04266244 3.66896978 0 0 Z " fill="#000000" transform="translate(237,270)"/>
<path d="M0 0 C3.27228243 1.38701683 3.89424018 1.79661573 5.625 5.125 C8.31234986 12.20922744 9.29781114 18.66065284 9.23046875 26.1796875 C9.23001053 27.03249298 9.22955231 27.88529846 9.2290802 28.76394653 C9.22607685 30.55732627 9.21824859 32.35070385 9.20581055 34.14404297 C9.18759757 36.86044776 9.18530104 39.5765093 9.18554688 42.29296875 C9.18062844 44.04687789 9.1747987 45.80078476 9.16796875 47.5546875 C9.16685593 48.35292938 9.1657431 49.15117126 9.16459656 49.97360229 C9.1174543 55.69474541 8.65190209 61.31715603 8 67 C8.97271851 66.63648438 8.97271851 66.63648438 9.96508789 66.265625 C33.82107783 57.47935513 33.82107783 57.47935513 47 59 C47.14453125 61.85546875 47.14453125 61.85546875 47 65 C45.33333333 66.66666667 43.66666667 68.33333333 42 70 C41.09674317 72.1500755 41.09674317 72.1500755 40.4375 74.5 C37.88200672 83.00895015 30.90675503 87.94253954 24.125 93.25 C21.79062776 95.00026237 21.79062776 95.00026237 20 98 C19.34 98 18.68 98 18 98 C18 98.66 18 99.32 18 100 C16.390625 101.515625 16.390625 101.515625 14.25 103.25 C7.8720846 108.6909827 5.4204974 113.28108479 4.68359375 121.55078125 C4.56177734 123.41283203 4.56177734 123.41283203 4.4375 125.3125 C4.35371094 126.56675781 4.26992187 127.82101563 4.18359375 129.11328125 C4.12300781 130.06589844 4.06242188 131.01851562 4 132 C4.67353516 131.88930176 5.34707031 131.77860352 6.04101562 131.66455078 C18.03454361 129.70037553 30.007087 127.75499125 42.0859375 126.39453125 C45.05732388 126.08427479 45.05732388 126.08427479 48 125 C48.33 123.35 48.66 121.7 49 120 C55 122 55 122 57.73803711 123.04443359 C61.45457149 124.13316315 64.69611183 124.32124968 68.56640625 124.4140625 C69.28175034 124.43342865 69.99709442 124.4527948 70.7341156 124.4727478 C73.01012502 124.53207393 75.28619527 124.57855961 77.5625 124.625 C79.06317176 124.66325846 80.5638234 124.70231451 82.06445312 124.7421875 C90.71043125 124.96152228 99.35088824 125.05111656 108 125 C108.33 125.66 108.66 126.32 109 127 C118.22029607 129.9343424 127.43679097 130.30082287 137.0324707 129.97705078 C142.14308999 129.83672513 146.15671482 130.32698348 151 132 C151 132.99 151 133.98 151 135 C151.66 135 152.32 135 153 135 C153 135.66 153 136.32 153 137 C153.62390625 137.07863281 154.2478125 137.15726563 154.890625 137.23828125 C157 138 157 138 158.046875 139.85546875 C159.40585129 144.36274012 160.36679774 148.23162934 160 153 C159.01 153 158.02 153 157 153 C157.103125 153.7425 157.20625 154.485 157.3125 155.25 C157 158 157 158 154.6875 160.1875 C144.38296341 167.13707119 133.75507736 164.65007466 122 163 C122 162.34 122 161.68 122 161 C121.16855469 160.87238281 120.33710938 160.74476563 119.48046875 160.61328125 C107.2679547 158.46135678 94.66526901 155.45486327 84 149 C82.17961379 148.11857737 80.34576328 147.26446416 78.5 146.4375 C77.5821875 146.02371094 76.664375 145.60992187 75.71875 145.18359375 C74.37296875 144.59771484 74.37296875 144.59771484 73 144 C72.20078125 143.62617188 71.4015625 143.25234375 70.578125 142.8671875 C60.00497804 139.31076534 46.61370074 142.63731921 36 145 C35.34 145.33 34.68 145.66 34 146 C31.77380507 146.18576196 29.54350932 146.32326859 27.3125 146.4375 C19.47352786 146.8826667 11.76772663 147.86514065 4 149 C3.01413083 155.82652263 2.68883475 162.61095558 2.4375 169.5 C2.37272461 171.16289062 2.37272461 171.16289062 2.30664062 172.859375 C2.20137786 175.57281506 2.09924154 178.28633417 2 181 C3.22074219 180.83886719 4.44148437 180.67773438 5.69921875 180.51171875 C21.45574029 178.55728743 37.72939997 181.12474485 53 185 C57.25522786 185.91680244 61.52052285 186.75786643 65.81640625 187.4609375 C71.32868384 188.37590058 75.88599573 189.6672963 81 192 C84.97942108 193.3965719 88.98978832 194.69496405 93 196 C94.43472656 196.49306641 94.43472656 196.49306641 95.8984375 196.99609375 C100.06113553 198.34346578 104.28308021 199.41821389 108.52148438 200.5 C112.13355318 201.44068119 115.57005798 202.52532243 119 204 C119 204.66 119 205.32 119 206 C119.680625 206.12375 120.36125 206.2475 121.0625 206.375 C124.4277412 207.09100877 127.70013425 208.02945125 131 209 C131 209.66 131 210.32 131 211 C131.680625 211.12375 132.36125 211.2475 133.0625 211.375 C136.43073755 212.09164629 139.69171187 213.04305715 143 214 C144.23621094 214.35320312 145.47242188 214.70640625 146.74609375 215.0703125 C150.1640625 216.046875 153.58203125 217.0234375 157 218 C157 218.66 157 219.32 157 220 C160.22596349 220.85257607 163.46583688 221.4760423 166.75 222.0625 C168.22726562 222.32740234 168.22726562 222.32740234 169.734375 222.59765625 C170.48203125 222.73042969 171.2296875 222.86320313 172 223 C172 223.66 172 224.32 172 225 C173.32 225.33 174.64 225.66 176 226 C176 226.66 176 227.32 176 228 C176.721875 228.268125 177.44375 228.53625 178.1875 228.8125 C181 230 181 230 183.4375 231.5625 C186.31835321 233.17858838 188.73990924 233.62091968 192 234 C192 234.99 192 235.98 192 237 C193.175625 237.0825 194.35125 237.165 195.5625 237.25 C200.15469785 237.79844431 203.14249265 239.50869317 207 242 C207 242.66 207 243.32 207 244 C207.66 244.33 208.32 244.66 209 245 C208.01 245.33 207.02 245.66 206 246 C206.804375 246.4125 207.60875 246.825 208.4375 247.25 C211.33653505 249.22982881 211.35182485 249.75912425 212 253 C215.82576921 254.2752564 219.49796269 254.42083122 223.50390625 254.71875 C226 255 226 255 228 256 C228 256.99 228 257.98 228 259 C226.60335892 258.88437394 225.20768801 258.757008 223.8125 258.625 C223.03519531 258.55539062 222.25789063 258.48578125 221.45703125 258.4140625 C219 258 219 258 216.59375 257.0234375 C213.60464813 255.84400273 210.8725758 255.41918741 207.6875 255 C205.84478516 254.75636719 205.84478516 254.75636719 203.96484375 254.5078125 C202.00224609 254.25644531 202.00224609 254.25644531 200 254 C198.62616499 253.81088911 197.25246775 253.62077481 195.87890625 253.4296875 C187.2253657 252.25519952 187.2253657 252.25519952 178.5 252.1875 C174.9739481 252.28066483 173.20282527 251.75972747 170.34375 249.71484375 C165.80760143 246.72650263 161.13938206 245.05697958 156 243.375 C154.29139463 242.80028729 152.58305766 242.22477597 150.875 241.6484375 C149.65296875 241.23996582 149.65296875 241.23996582 148.40625 240.82324219 C144.90685694 239.62600666 141.45493662 238.31959385 138 237 C138 236.34 138 235.68 138 235 C137.15695312 234.87882813 136.31390625 234.75765625 135.4453125 234.6328125 C133.80175781 234.38144531 133.80175781 234.38144531 132.125 234.125 C131.03445313 233.96257812 129.94390625 233.80015625 128.8203125 233.6328125 C126 233 126 233 124 231 C119.06070561 228.9907955 114.13041442 227.45361742 109 226 C107.03994485 225.33841276 105.08176847 224.67124589 103.125 224 C99.57704954 222.80118941 96.10850083 221.73815457 92.4375 221 C89.1737332 220.34234632 86.20820774 219.3706475 83.10546875 218.16796875 C76.48147288 215.72053527 69.72213266 214.01316769 62.875 212.3125 C60.4549613 211.70749032 58.03564432 211.09958367 55.6171875 210.48828125 C54.56128418 210.22571533 53.50538086 209.96314941 52.41748047 209.69262695 C50 209 50 209 49 208 C45.95906698 207.46462447 42.93150501 206.99166026 39.875 206.5625 C38.95243408 206.43125732 38.02986816 206.30001465 37.0793457 206.16479492 C26.42411465 204.70388903 15.72078685 203.81992013 5 203 C5.42881592 209.03727679 6.08527286 214.82174954 7.49609375 220.70800781 C8.45121186 225.0523144 8.94818031 229.46457177 9.5 233.875 C9.62745605 234.86862549 9.75491211 235.86225098 9.88623047 236.88598633 C10.81911983 244.26616464 11.64033004 251.65542447 12.35351562 259.06005859 C12.71622296 263.01521541 12.71622296 263.01521541 13.50756836 266.89868164 C14.56608809 271.41562726 14.35721157 276.13203087 14.4375 280.75 C14.48326172 281.80960937 14.52902344 282.86921875 14.57617188 283.9609375 C14.66934361 290.49106087 13.90395319 294.41812148 9.68774414 299.48535156 C5.58920154 303.16354602 1.89170041 303.38962994 -3.42578125 303.234375 C-11.49497938 302.49969839 -16.33893205 298.38869606 -22.3828125 293.20703125 C-24.51265564 291.4109695 -26.61717404 289.84112676 -28.9375 288.3125 C-32.23011705 285.82623815 -33.82919079 283.47329474 -36 280 C-36.9075 279.0925 -37.815 278.185 -38.75 277.25 C-39.4925 276.5075 -40.235 275.765 -41 275 C-41 274.34 -41 273.68 -41 273 C-41.99 272.67 -42.98 272.34 -44 272 C-45.55635593 269.92189428 -46.94679238 267.88547639 -48.3125 265.6875 C-48.70767822 265.06246582 -49.10285645 264.43743164 -49.51000977 263.79345703 C-53.07889197 258.05741664 -56.11661933 252.10709481 -59 246 C-59.66 244.68 -60.32 243.36 -61 242 C-63.97 242 -66.94 242 -70 242 C-70 242.66 -70 243.32 -70 244 C-71.56958008 245.12573242 -71.56958008 245.12573242 -73.76953125 246.35546875 C-74.97125977 247.03657715 -74.97125977 247.03657715 -76.19726562 247.73144531 C-77.06029297 248.21194336 -77.92332031 248.69244141 -78.8125 249.1875 C-80.56999982 250.18445574 -82.32651674 251.18314626 -84.08203125 252.18359375 C-84.93361816 252.66812012 -85.78520508 253.15264648 -86.66259766 253.65185547 C-90.35778189 255.78312843 -93.94568492 258.06346925 -97.51953125 260.390625 C-99.27299069 261.52830262 -101.04306942 262.64055716 -102.82421875 263.734375 C-107.11436961 266.37987048 -111.0586383 268.92800875 -114.6875 272.4375 C-119.00083444 276.47051292 -124.1580425 278.69416033 -129.54174805 280.98413086 C-134.00838028 283.00656586 -134.00838028 283.00656586 -136.4765625 287.24609375 C-136.64929688 288.15488281 -136.82203125 289.06367188 -137 290 C-137.99 288.515 -137.99 288.515 -139 287 C-139.66 287.99 -140.32 288.98 -141 290 C-141.33 289.67 -141.66 289.34 -142 289 C-144.0742997 289.02571704 -144.0742997 289.02571704 -146.4375 289.3125 C-147.24058594 289.39113281 -148.04367188 289.46976562 -148.87109375 289.55078125 C-151.20482915 289.84090883 -151.20482915 289.84090883 -153 292 C-156.25151621 292.87639961 -159.50272067 293.62245204 -162.79492188 294.32421875 C-167.833768 295.48160077 -171.56896539 297.34467777 -176 300 C-176.886875 300.103125 -177.77375 300.20625 -178.6875 300.3125 C-181.52716213 301.15672388 -181.76239511 301.86534838 -183.1875 304.375 C-183.49042969 304.98085938 -183.79335937 305.58671875 -184.10546875 306.2109375 C-185 308 -185 308 -187 311 C-190.5625 311.25 -190.5625 311.25 -194 311 C-194.33 310.67 -194.66 310.34 -195 310 C-196.87933183 309.79504026 -198.76548741 309.65207408 -200.65234375 309.53515625 C-201.82216797 309.45716797 -202.99199219 309.37917969 -204.19726562 309.29882812 C-206.65549349 309.14350407 -209.11382495 308.98980931 -211.57226562 308.83789062 C-213.3444043 308.71897461 -213.3444043 308.71897461 -215.15234375 308.59765625 C-216.22476318 308.53070557 -217.29718262 308.46375488 -218.40209961 308.39477539 C-222.97703128 307.89279639 -227.48698648 306.9026027 -232 306 C-232 295.77 -232 285.54 -232 275 C-227.39666345 275.76722276 -223.41399647 276.67580106 -219 278 C-219 278.66 -219 279.32 -219 280 C-196.68931366 278.98431415 -196.68931366 278.98431415 -175 274 C-173.40103409 273.6230481 -171.79710895 273.26604797 -170.1875 272.9375 C-157.10276114 270.41689714 -157.10276114 270.41689714 -146 264 C-143.1796875 263.5859375 -143.1796875 263.5859375 -139.875 263.375 C-138.23144531 263.26285156 -138.23144531 263.26285156 -136.5546875 263.1484375 C-135.71164063 263.09945313 -134.86859375 263.05046875 -134 263 C-134 262.34 -134 261.68 -134 261 C-133.319375 260.72027344 -132.63875 260.44054687 -131.9375 260.15234375 C-129.84524315 259.287062 -127.75567641 258.41526337 -125.66796875 257.5390625 C-123.82606999 256.76621041 -121.98406132 255.99348096 -120.13525391 255.23730469 C-104.97856108 249.03417944 -91.32045105 240.90801715 -78 231.40332031 C-73.19937149 228 -73.19937149 228 -71 228 C-71 227.34 -71 226.68 -71 226 C-69.52227494 224.90776843 -68.04016613 223.81885391 -66.5078125 222.8046875 C-62.47128249 217.97340028 -62.73170714 210.63873195 -62.5625 204.625 C-62.02932917 193.40771879 -60.2010012 186.07053073 -52 178 C-51.51789063 177.4534375 -51.03578125 176.906875 -50.5390625 176.34375 C-48.67221815 174.71381483 -47.2922685 174.39687021 -44.875 173.9375 C-43.59625 173.628125 -42.3175 173.31875 -41 173 C-40.67 172.34 -40.34 171.68 -40 171 C-39.67 171.99 -39.34 172.98 -39 174 C-37.00428677 174.67939174 -35.00405227 175.34561559 -33 176 C-28.49246071 182.76130893 -31.012867 193.72676331 -32.11328125 201.40625 C-33.86010453 208.4858862 -38.0957804 213.36693622 -43.4375 218.125 C-46.32529322 220.83701904 -46.32529322 220.83701904 -46.5625 224.75 C-46.25045704 228.91057274 -45.00776948 232.77370725 -43.65625 236.703125 C-43 239 -43 239 -43 243 C-42.34 243 -41.68 243 -41 243 C-40.5978125 243.94359375 -40.5978125 243.94359375 -40.1875 244.90625 C-37.12098313 251.60416842 -33.41068528 256.07337205 -28 261 C-26.62310263 262.28829701 -25.27956893 263.61498775 -24 265 C-24 265.66 -24 266.32 -24 267 C-23.2265625 267.3403125 -23.2265625 267.3403125 -22.4375 267.6875 C-19.65045269 269.18821778 -17.21166052 270.98144856 -14.68359375 272.87890625 C-12.88113235 274.18551179 -12.88113235 274.18551179 -10 275 C-10.15726563 273.69289063 -10.31453125 272.38578125 -10.4765625 271.0390625 C-10.93521393 266.45093888 -11.12484424 261.88126883 -11.2109375 257.2734375 C-11.23072662 256.21829956 -11.23072662 256.21829956 -11.25091553 255.1418457 C-11.27801043 253.65702856 -11.30479695 252.17220577 -11.33129883 250.68737793 C-11.62539257 235.12587599 -12.65299319 219.77253759 -14.28125 204.296875 C-15.57700789 191.68857997 -16.15456585 179.17675881 -16.0625 166.5 C-16.05798828 165.28441406 -16.05347656 164.06882813 -16.04882812 162.81640625 C-16.03725782 159.87754775 -16.02096381 156.93880383 -16 154 C-16.7324292 154.13349854 -17.4648584 154.26699707 -18.21948242 154.40454102 C-19.19248291 154.58170654 -20.1654834 154.75887207 -21.16796875 154.94140625 C-22.60692505 155.20352905 -22.60692505 155.20352905 -24.07495117 155.47094727 C-26.00487347 155.82001175 -27.93561281 156.16459265 -29.8671875 156.50439453 C-34.73883273 157.36724384 -38.62095135 158.59152324 -43 161 C-43.66 161 -44.32 161 -45 161 C-45.33 161.99 -45.66 162.98 -46 164 C-48.37109375 165.7265625 -48.37109375 165.7265625 -51.4375 167.625 C-56.51189556 170.90632293 -60.87151476 174.43321124 -65.26953125 178.55859375 C-69.15052004 182.02871964 -73.27629347 185.16375868 -77.44287109 188.2824707 C-81.06309423 190.99202258 -81.06309423 190.99202258 -83 195 C-83.21457499 196.77072853 -83.38784229 198.54663034 -83.53515625 200.32421875 C-83.66567383 201.86625977 -83.66567383 201.86625977 -83.79882812 203.43945312 C-83.88583984 204.51130859 -83.97285156 205.58316406 -84.0625 206.6875 C-84.19881836 208.31268555 -84.19881836 208.31268555 -84.33789062 209.97070312 C-84.56188773 212.64687907 -84.7824562 215.32329301 -85 218 C-85.66 218 -86.32 218 -87 218 C-87 218.99 -87 219.98 -87 221 C-87.66 221 -88.32 221 -89 221 C-89 221.66 -89 222.32 -89 223 C-88.34 223 -87.68 223 -87 223 C-87.33 223.99 -87.66 224.98 -88 226 C-90.875 226.125 -90.875 226.125 -94 226 C-96.82879286 223.17120714 -96.3142666 221.20075802 -96.4140625 217.2421875 C-96.44311172 216.24761032 -96.44311172 216.24761032 -96.4727478 215.23294067 C-96.53255954 213.11375823 -96.57893388 210.9945215 -96.625 208.875 C-96.66317845 207.43877831 -96.70223011 206.00257955 -96.7421875 204.56640625 C-96.83826125 201.04448064 -96.92228642 197.52238392 -97 194 C-104.01873273 194.57465 -104.01873273 194.57465 -110.625 196.875 C-119.06733168 200.49502955 -128.81704172 202.528273 -138 202 C-140.78407902 200.02183859 -141.77463787 198.65998908 -142.875 195.4375 C-143 193 -143 193 -141 190 C-136.83656356 187.445164 -133.86790075 186.6522928 -129 187 C-129.66 189.97 -130.32 192.94 -131 196 C-120.8232139 192.88130749 -112.32071176 188.63408099 -104 182 C-103.18789062 181.39542969 -102.37578125 180.79085937 -101.5390625 180.16796875 C-100.31316406 179.24951172 -100.31316406 179.24951172 -99.0625 178.3125 C-98.31097656 177.75175781 -97.55945313 177.19101563 -96.78515625 176.61328125 C-94.73578785 175.02706421 -94.73578785 175.02706421 -94 172 C-94.66 171.67 -95.32 171.34 -96 171 C-95.02719036 168.54237565 -94.42012222 167.25102738 -92.1171875 165.875 C-91.00730469 165.441875 -91.00730469 165.441875 -89.875 165 C-89.070625 164.66742188 -88.26625 164.33484375 -87.4375 163.9921875 C-86.633125 163.66476563 -85.82875 163.33734375 -85 163 C-79.7474842 160.70202434 -75.63696205 158.11007597 -71.4453125 154.171875 C-70 153 -70 153 -68 153 C-68 152.34 -68 151.68 -68 151 C-67.34 150.67 -66.68 150.34 -66 150 C-66.54723683 146.62537285 -67.0549 144.91765 -69 142 C-69.1953125 139.08203125 -69.1953125 139.08203125 -69.125 135.8125 C-69.10695312 134.72582031 -69.08890625 133.63914063 -69.0703125 132.51953125 C-69.04710937 131.68808594 -69.02390625 130.85664063 -69 130 C-69.71542969 130.16371094 -70.43085938 130.32742187 -71.16796875 130.49609375 C-73.95828394 130.99257742 -76.4835503 131.10021933 -79.3125 131.0625 C-80.19550781 131.05347656 -81.07851562 131.04445312 -81.98828125 131.03515625 C-82.98408203 131.01775391 -82.98408203 131.01775391 -84 131 C-82.74971744 124.47074664 -79.60230537 119.78683176 -75 115 C-74.34 115 -73.68 115 -73 115 C-72.89171875 114.13117188 -72.7834375 113.26234375 -72.671875 112.3671875 C-71.00684943 104.02269889 -65.80926094 95.94671025 -61 89 C-60.34 89 -59.68 89 -59 89 C-58.773125 88.01 -58.54625 87.02 -58.3125 86 C-57.46910046 82.99990734 -56.28857731 80.71411597 -54.5625 78.125 C-51.07867627 72.8119119 -49.23661518 67.44502349 -48.625 61.125 C-48 58 -48 58 -46 55.9375 C-40.91396796 54.34811499 -36.70478073 55.74643816 -31.96875 57.94140625 C-27.42593282 60.70367009 -25.80910436 63.7730731 -24.421875 68.83984375 C-23.94618257 71.27556518 -23.76055087 73.52569236 -24 76 C-22.51988629 75.69201674 -21.04092675 75.378482 -19.5625 75.0625 C-18.73878906 74.88847656 -17.91507813 74.71445313 -17.06640625 74.53515625 C-15.02338796 74.19247006 -15.02338796 74.19247006 -14 73 C-13.70891682 70.63704462 -13.47606953 68.29332023 -13.28125 65.921875 C-13.21844849 65.19945618 -13.15564697 64.47703735 -13.09094238 63.73272705 C-12.88973764 61.40549219 -12.69486322 59.07777354 -12.5 56.75 C-12.36888947 55.22652803 -12.2373835 53.70309004 -12.10546875 52.1796875 C-11.9763497 50.6771016 -11.84744214 49.17449752 -11.71875 47.671875 C-11.6232486 46.55894829 -11.6232486 46.55894829 -11.52581787 45.42353821 C-11.23997704 42.04241823 -10.97861843 38.66464809 -10.76269531 35.27807617 C-10.36854648 29.11303558 -9.67408049 23.68825212 -7.75 17.8125 C-7.53255127 17.14541016 -7.31510254 16.47832031 -7.09106445 15.79101562 C-5.2313563 10.26990285 -2.86714161 5.07545068 0 0 Z " fill="#F8F8F9" transform="translate(232,67)"/>
<path d="M0 0 C-0.66 0 -1.32 0 -2 0 C-2 0.99 -2 1.98 -2 3 C-3.98 2.67 -5.96 2.34 -8 2 C-7.7834375 2.67546875 -7.566875 3.3509375 -7.34375 4.046875 C-7.0653125 4.93890625 -6.786875 5.8309375 -6.5 6.75 C-6.2215625 7.63171875 -5.943125 8.5134375 -5.65625 9.421875 C-5 12 -5 12 -5 16 C-3.02 16.66 -1.04 17.32 1 18 C0.01 19.485 0.01 19.485 -1 21 C-1.38499891 22.65549531 -1.72793135 24.3222433 -2 26 C-2.99 24.515 -2.99 24.515 -4 23 C-4.99 24.485 -4.99 24.485 -6 26 C-6.33 25.67 -6.66 25.34 -7 25 C-9.0742997 25.02571704 -9.0742997 25.02571704 -11.4375 25.3125 C-12.24058594 25.39113281 -13.04367188 25.46976562 -13.87109375 25.55078125 C-16.20482915 25.84090883 -16.20482915 25.84090883 -18 28 C-21.25151621 28.87639961 -24.50272067 29.62245204 -27.79492188 30.32421875 C-32.833768 31.48160077 -36.56896539 33.34467777 -41 36 C-41.886875 36.103125 -42.77375 36.20625 -43.6875 36.3125 C-46.52716213 37.15672388 -46.76239511 37.86534838 -48.1875 40.375 C-48.49042969 40.98085938 -48.79335938 41.58671875 -49.10546875 42.2109375 C-50 44 -50 44 -52 47 C-55.5625 47.25 -55.5625 47.25 -59 47 C-59.33 46.67 -59.66 46.34 -60 46 C-61.87933183 45.79504026 -63.76548741 45.65207408 -65.65234375 45.53515625 C-66.82216797 45.45716797 -67.99199219 45.37917969 -69.19726562 45.29882812 C-71.65549349 45.14350407 -74.11382495 44.98980931 -76.57226562 44.83789062 C-77.75369141 44.75861328 -78.93511719 44.67933594 -80.15234375 44.59765625 C-81.22476318 44.53070557 -82.29718262 44.46375488 -83.40209961 44.39477539 C-87.97703128 43.89279639 -92.48698648 42.9026027 -97 42 C-97 31.77 -97 21.54 -97 11 C-92.39666345 11.76722276 -88.41399647 12.67580106 -84 14 C-84 14.66 -84 15.32 -84 16 C-61.68931366 14.98431415 -61.68931366 14.98431415 -40 10 C-38.40103409 9.6230481 -36.79710895 9.26604797 -35.1875 8.9375 C-22.10276114 6.41689714 -22.10276114 6.41689714 -11 0 C-7.07499282 -0.7995385 -3.82596514 -1.37734745 0 0 Z " fill="#F8F9FB" transform="translate(97,331)"/>
<path d="M0 0 C4.08817373 0.74330431 8.00988591 1.84583477 12 3 C13.23621094 3.35320312 14.47242188 3.70640625 15.74609375 4.0703125 C20.87304688 5.53515625 20.87304688 5.53515625 26 7 C26 7.66 26 8.32 26 9 C29.22596349 9.85257607 32.46583688 10.4760423 35.75 11.0625 C36.73484375 11.23910156 37.7196875 11.41570312 38.734375 11.59765625 C39.48203125 11.73042969 40.2296875 11.86320312 41 12 C41 12.66 41 13.32 41 14 C42.32 14.33 43.64 14.66 45 15 C45 15.66 45 16.32 45 17 C45.721875 17.268125 46.44375 17.53625 47.1875 17.8125 C50 19 50 19 52.4375 20.5625 C55.31835321 22.17858838 57.73990924 22.62091968 61 23 C61 23.99 61 24.98 61 26 C62.175625 26.0825 63.35125 26.165 64.5625 26.25 C69.15469785 26.79844431 72.14249265 28.50869317 76 31 C76 31.66 76 32.32 76 33 C76.66 33.33 77.32 33.66 78 34 C76.515 34.495 76.515 34.495 75 35 C75.804375 35.4125 76.60875 35.825 77.4375 36.25 C80.33653505 38.22982881 80.35182485 38.75912425 81 42 C84.82576921 43.2752564 88.49796269 43.42083122 92.50390625 43.71875 C95 44 95 44 97 45 C97 45.99 97 46.98 97 48 C95.60335892 47.88437394 94.20768801 47.757008 92.8125 47.625 C92.03519531 47.55539062 91.25789063 47.48578125 90.45703125 47.4140625 C88 47 88 47 85.59375 46.0234375 C82.60464813 44.84400273 79.8725758 44.41918741 76.6875 44 C75.45902344 43.83757812 74.23054688 43.67515625 72.96484375 43.5078125 C71.65644531 43.34023438 70.34804688 43.17265625 69 43 C67.62616499 42.81088911 66.25246775 42.62077481 64.87890625 42.4296875 C56.2253657 41.25519952 56.2253657 41.25519952 47.5 41.1875 C43.9739481 41.28066483 42.20282527 40.75972747 39.34375 38.71484375 C34.80760143 35.72650263 30.13938206 34.05697958 25 32.375 C23.29139463 31.80028729 21.58305766 31.22477597 19.875 30.6484375 C19.0603125 30.37612305 18.245625 30.10380859 17.40625 29.82324219 C13.90685694 28.62600666 10.45493662 27.31959385 7 26 C7 25.67 7 25.34 7 25 C8.65 24.67 10.3 24.34 12 24 C10.32027858 22.32027858 8.20673313 21.78811897 6 21 C5.01 21 4.02 21 3 21 C2.67 19.68 2.34 18.36 2 17 C3.6875 16.25 3.6875 16.25 6 16 C8.75 17.9375 8.75 17.9375 11 20 C11.33 19.01 11.66 18.02 12 17 C12.99 17 13.98 17 15 17 C15 14.36 15 11.72 15 9 C14.34 9 13.68 9 13 9 C13 9.66 13 10.32 13 11 C12.34 11 11.68 11 11 11 C11 11.66 11 12.32 11 13 C9.02 13 7.04 13 5 13 C4.67 12.01 4.34 11.02 4 10 C5.98 10 7.96 10 10 10 C10 9.34 10 8.68 10 8 C9.21625 7.855625 8.4325 7.71125 7.625 7.5625 C5 7 5 7 3 6 C3 5.34 3 4.68 3 4 C2.01 3.34 1.02 2.68 0 2 C0 1.34 0 0.68 0 0 Z " fill="#F1F2FB" transform="translate(363,278)"/>
<path d="M0 0 C3.96 0 7.92 0 12 0 C12.33 0.66 12.66 1.32 13 2 C22.22029607 4.9343424 31.43679097 5.30082287 41.0324707 4.97705078 C46.14308999 4.83672513 50.15671482 5.32698348 55 7 C55 7.99 55 8.98 55 10 C55.66 10 56.32 10 57 10 C57 10.66 57 11.32 57 12 C57.62390625 12.07863281 58.2478125 12.15726563 58.890625 12.23828125 C61 13 61 13 62.046875 14.85546875 C63.40585129 19.36274012 64.36679774 23.23162934 64 28 C63.01 28 62.02 28 61 28 C61.061875 28.763125 61.12375 29.52625 61.1875 30.3125 C61 33 61 33 59.625 34.8125 C58 36 58 36 56 36 C56.33 33.36 56.66 30.72 57 28 C56.01 28 55.02 28 54 28 C54 28.99 54 29.98 54 31 C53.01 31 52.02 31 51 31 C51 30.01 51 29.02 51 28 C40.44 28 29.88 28 19 28 C19 27.34 19 26.68 19 26 C13.94990405 25.06213918 13.94990405 25.06213918 9 26 C8.67 24.68 8.34 23.36 8 22 C4.94152152 21.45627049 2.11227195 21 -1 21 C-1 20.34 -1 19.68 -1 19 C-3.31 19.66 -5.62 20.32 -8 21 C-9.32 18.03 -10.64 15.06 -12 12 C-7.545 11.505 -7.545 11.505 -3 11 C-2.67 10.01 -2.34 9.02 -2 8 C-1 7 -1 7 0.875 6.625 C3.33113948 5.90260603 4.34191808 4.90679421 6 3 C3.03 2.505 3.03 2.505 0 2 C0 1.34 0 0.68 0 0 Z " fill="#DFE1E8" transform="translate(328,192)"/>
<path d="M0 0 C0.41888987 2.86241411 0.53400587 5.07702688 -0.94921875 7.640625 C-4.7010238 12.24169251 -9.31308254 15.79462143 -13.9375 19.4765625 C-17.26889177 22.22156133 -20.41744227 25.10879595 -23.5625 28.0625 C-28.82682072 32.99721349 -34.27237317 37.60407873 -40 42 C-40.66 41.67 -41.32 41.34 -42 41 C-42.39520958 29.69261477 -42.39520958 29.69261477 -40 26 C-38.25442523 24.3743136 -36.43599395 22.86937414 -34.5859375 21.36328125 C-32.46884591 19.428477 -30.69492486 17.53514257 -28.8515625 15.35546875 C-20.35206311 5.39485221 -13.78137494 0 0 0 Z " fill="#0A0A0C" transform="translate(217,166)"/>
<path d="M0 0 C1.65 0.33 3.3 0.66 5 1 C5.33 2.65 5.66 4.3 6 6 C6.763125 5.67 7.52625 5.34 8.3125 5 C11 4 11 4 14 4 C14 4.66 14 5.32 14 6 C14.66 6 15.32 6 16 6 C16 6.66 16 7.32 16 8 C17.85431641 7.73896484 17.85431641 7.73896484 19.74609375 7.47265625 C25.55287992 6.82745779 31.24122875 7.11797281 37.0625 7.4375 C38.64708008 7.51581055 38.64708008 7.51581055 40.26367188 7.59570312 C42.84284382 7.7240782 45.42149436 7.85897048 48 8 C48 8.99 48 9.98 48 11 C48.99 11 49.98 11 51 11 C51 10.01 51 9.02 51 8 C51.99 8 52.98 8 54 8 C54.97791242 10.64036353 55.03638105 11.87266632 54.25 14.625 C53 17 53 17 50 19 C41.22214574 21.25820317 31.8031038 19.23570251 23 18 C23 17.34 23 16.68 23 16 C22.16855469 15.87238281 21.33710938 15.74476563 20.48046875 15.61328125 C10.45531027 13.84678307 -0.87288583 11.59852687 -10 7 C-10.66 6.01 -11.32 5.02 -12 4 C-10.68 4.33 -9.36 4.66 -8 5 C-8 4.34 -8 3.68 -8 3 C-6.34385343 2.61781233 -4.67542976 2.28604898 -3 2 C-2.67 2.33 -2.34 2.66 -2 3 C-1.34 3.33 -0.68 3.66 0 4 C0.33 4.99 0.66 5.98 1 7 C1.33 7 1.66 7 2 7 C1.34 4.69 0.68 2.38 0 0 Z " fill="#ECEDF2" transform="translate(331,212)"/>
<path d="M0 0 C2.76365261 1.13322671 5.47151766 2.31355944 8.15625 3.62109375 C8.15625 4.94109375 8.15625 6.26109375 8.15625 7.62109375 C4.19651801 8.94100441 0.40772829 8.76933023 -3.71875 8.74609375 C-4.56920898 8.74270996 -5.41966797 8.73932617 -6.29589844 8.73583984 C-19.2371032 8.63080553 -30.17748466 7.12498113 -42.28125 2.49609375 C-43.01279297 2.21894531 -43.74433594 1.94179687 -44.49804688 1.65625 C-46.28090878 0.98039385 -48.062468 0.30110296 -49.84375 -0.37890625 C-49.84375 -1.36890625 -49.84375 -2.35890625 -49.84375 -3.37890625 C-36.94678062 -10.793508 -13.25187936 -4.95905841 0 0 Z " fill="#09090D" transform="translate(373.84375,209.37890625)"/>
<path d="M0 0 C0.99 0.66 1.98 1.32 3 2 C4.9896995 2.39013716 6.99019869 2.73202649 9 3 C9 3.99 9 4.98 9 6 C10.175625 6.0825 11.35125 6.165 12.5625 6.25 C17.15469785 6.79844431 20.14249265 8.50869317 24 11 C24 11.66 24 12.32 24 13 C24.66 13.33 25.32 13.66 26 14 C25.01 14.33 24.02 14.66 23 15 C23.804375 15.4125 24.60875 15.825 25.4375 16.25 C28.33653505 18.22982881 28.35182485 18.75912425 29 22 C32.82576921 23.2752564 36.49796269 23.42083122 40.50390625 23.71875 C43 24 43 24 45 25 C45 25.99 45 26.98 45 28 C43.60335892 27.88437394 42.20768801 27.757008 40.8125 27.625 C40.03519531 27.55539062 39.25789063 27.48578125 38.45703125 27.4140625 C36 27 36 27 33.59375 26.0234375 C30.60464813 24.84400273 27.8725758 24.41918741 24.6875 24 C22.84478516 23.75636719 22.84478516 23.75636719 20.96484375 23.5078125 C19.65644531 23.34023438 18.34804688 23.17265625 17 23 C15.62616499 22.81088911 14.25246775 22.62077481 12.87890625 22.4296875 C5.56864596 21.43522323 -1.60632118 20.6800812 -9 21 C-8.01 20.67 -7.02 20.34 -6 20 C-5.855625 19.21625 -5.71125 18.4325 -5.5625 17.625 C-5 15 -5 15 -4 13 C-2.02 13 -0.04 13 2 13 C2 13.66 2 14.32 2 15 C2.825 14.79375 3.65 14.5875 4.5 14.375 C8.87818732 13.9059085 11.79269734 14.76682508 16 16 C15.67 14.35 15.34 12.7 15 11 C14.05125 10.9175 13.1025 10.835 12.125 10.75 C9 10 9 10 7.625 7.9375 C7.41875 7.298125 7.2125 6.65875 7 6 C6.34 6 5.68 6 5 6 C5 6.66 5 7.32 5 8 C4.34 8 3.68 8 3 8 C0 2.25 0 2.25 0 0 Z " fill="#E1E3EA" transform="translate(415,298)"/>
<path d="M0 0 C0.04898438 0.63808594 0.09796875 1.27617187 0.1484375 1.93359375 C0.22320312 2.75988281 0.29796875 3.58617187 0.375 4.4375 C0.47941406 5.67306641 0.47941406 5.67306641 0.5859375 6.93359375 C0.79089844 7.95646484 0.79089844 7.95646484 1 9 C1.66 9.33 2.32 9.66 3 10 C-8.47282773 14.47245827 -20.50664228 18.69999325 -33 18 C-35.78407902 16.02183859 -36.77463787 14.65998908 -37.875 11.4375 C-38 9 -38 9 -36 6 C-31.83656356 3.445164 -28.86790075 2.6522928 -24 3 C-24.66 5.97 -25.32 8.94 -26 12 C-18.9388495 9.83609904 -6.47133712 0 0 0 Z " fill="#BABFC6" transform="translate(127,251)"/>
<path d="M0 0 C4.08817373 0.74330431 8.00988591 1.84583477 12 3 C13.23621094 3.35320312 14.47242188 3.70640625 15.74609375 4.0703125 C20.87304688 5.53515625 20.87304688 5.53515625 26 7 C26 7.66 26 8.32 26 9 C29.22596349 9.85257607 32.46583688 10.4760423 35.75 11.0625 C36.73484375 11.23910156 37.7196875 11.41570312 38.734375 11.59765625 C39.48203125 11.73042969 40.2296875 11.86320312 41 12 C41 12.66 41 13.32 41 14 C42.32 14.33 43.64 14.66 45 15 C45 15.66 45 16.32 45 17 C47.475 17.99 47.475 17.99 50 19 C50 19.33 50 19.66 50 20 C48.35 20 46.7 20 45 20 C45 19.34 45 18.68 45 18 C43.700625 18.3403125 43.700625 18.3403125 42.375 18.6875 C38.28170605 19.0665087 36.43959315 18.15974453 33 16 C32.505 15.01 32.505 15.01 32 14 C31.34 14 30.68 14 30 14 C30.2475 14.7425 30.495 15.485 30.75 16.25 C31 19 31 19 29.1875 21.3125 C27 23 27 23 25 23 C25 19.14154023 25.58438755 17.45055534 27 14 C27 13.01 27 12.02 27 11 C23.37 11 19.74 11 16 11 C16 13.31 16 15.62 16 18 C15.34 18.33 14.68 18.66 14 19 C13.34 18.34 12.68 17.68 12 17 C12.99 17 13.98 17 15 17 C15 14.36 15 11.72 15 9 C14.34 9 13.68 9 13 9 C13 9.66 13 10.32 13 11 C12.34 11 11.68 11 11 11 C11 11.66 11 12.32 11 13 C9.02 13 7.04 13 5 13 C4.67 12.01 4.34 11.02 4 10 C5.98 10 7.96 10 10 10 C10 9.34 10 8.68 10 8 C9.21625 7.855625 8.4325 7.71125 7.625 7.5625 C5 7 5 7 3 6 C3 5.34 3 4.68 3 4 C2.01 3.34 1.02 2.68 0 2 C0 1.34 0 0.68 0 0 Z " fill="#D5DBE3" transform="translate(363,278)"/>
<path d="M0 0 C2.475 0.495 2.475 0.495 5 1 C5 1.99 5 2.98 5 4 C5.66 4 6.32 4 7 4 C7 4.66 7 5.32 7 6 C7.62390625 6.07863281 8.2478125 6.15726563 8.890625 6.23828125 C11 7 11 7 12.046875 8.85546875 C13.40585129 13.36274012 14.36679774 17.23162934 14 22 C13.01 22 12.02 22 11 22 C11.061875 22.763125 11.12375 23.52625 11.1875 24.3125 C11 27 11 27 9.625 28.8125 C8 30 8 30 6 30 C6.33 27.36 6.66 24.72 7 22 C6.01 22 5.02 22 4 22 C4 22.99 4 23.98 4 25 C3.01 25 2.02 25 1 25 C1 24.01 1 23.02 1 22 C-9.56 22 -20.12 22 -31 22 C-31 21.34 -31 20.68 -31 20 C-36.05009595 19.06213918 -36.05009595 19.06213918 -41 20 C-41 18.68 -41 17.36 -41 16 C-39.52031676 16.14049518 -38.04125484 16.28754826 -36.5625 16.4375 C-35.32693359 16.55931641 -35.32693359 16.55931641 -34.06640625 16.68359375 C-32 17 -32 17 -31 18 C-19.47780197 19.68161809 -7.60661148 19.10157934 4 19 C4 17.68 4 16.36 4 15 C3.34 14.67 2.68 14.34 2 14 C3.93254772 11.9754262 5.63158688 10.57894208 8 9 C7.34 8.401875 6.68 7.80375 6 7.1875 C4 5 4 5 4 2 C2.68 1.67 1.36 1.34 0 1 C0 0.67 0 0.34 0 0 Z " fill="#C5C9D1" transform="translate(378,198)"/>
<path d="M0 0 C0 0.99 0 1.98 0 3 C0.99 3 1.98 3 3 3 C3 2.01 3 1.02 3 0 C3.99 0 4.98 0 6 0 C6.97791242 2.64036353 7.03638105 3.87266632 6.25 6.625 C5 9 5 9 2 11 C-4.10820844 12.24768023 -9.89086409 12.01818932 -16 11 C-16.33 10.01 -16.66 9.02 -17 8 C-17.99 7.67 -18.98 7.34 -20 7 C-20.5625 5.0625 -20.5625 5.0625 -21 3 C-21.66 2.34 -22.32 1.68 -23 1 C-15.31516461 0.32546899 -7.71589817 -0.1567564 0 0 Z " fill="#EDEEF4" transform="translate(379,220)"/>
<path d="M0 0 C3.1875 1.9375 3.1875 1.9375 6 4 C6.33 3.34 6.66 2.68 7 2 C9.31 2.66 11.62 3.32 14 4 C14 4.66 14 5.32 14 6 C16.97 6.99 19.94 7.98 23 9 C23 9.66 23 10.32 23 11 C21.35 11 19.7 11 18 11 C17.67 11.99 17.34 12.98 17 14 C19.31 13.34 21.62 12.68 24 12 C24 12.99 24 13.98 24 15 C25.65 15 27.3 15 29 15 C29 15.66 29 16.32 29 17 C30.32 17.33 31.64 17.66 33 18 C30 20 30 20 27.95043945 19.63208008 C27.17917725 19.34743896 26.40791504 19.06279785 25.61328125 18.76953125 C24.75669922 18.46080078 23.90011719 18.15207031 23.01757812 17.83398438 C22.12490234 17.49689453 21.23222656 17.15980469 20.3125 16.8125 C19.43916016 16.49474609 18.56582031 16.17699219 17.66601562 15.84960938 C15.10497927 14.91432425 12.55169117 13.96045395 10 13 C9.19868652 12.70013184 8.39737305 12.40026367 7.57177734 12.09130859 C5.7138906 11.39588018 3.85684397 10.69820792 2 10 C2 9.67 2 9.34 2 9 C3.65 8.67 5.3 8.34 7 8 C5.32027858 6.32027858 3.20673313 5.78811897 1 5 C0.01 5 -0.98 5 -2 5 C-2.33 3.68 -2.66 2.36 -3 1 C-2.01 0.67 -1.02 0.34 0 0 Z " fill="#E3E3EE" transform="translate(368,294)"/>
<path d="M0 0 C-0.66 3.63 -1.32 7.26 -2 11 C-0.68 11 0.64 11 2 11 C2 11.66 2 12.32 2 13 C0.35 13 -1.3 13 -3 13 C-3.33 13.66 -3.66 14.32 -4 15 C-7.3125 14.8125 -7.3125 14.8125 -11 14 C-13 11.6875 -13 11.6875 -14 9 C-13.72774523 6.61777077 -13.06876699 5.13753399 -12 3 C-7.82718509 0.47690261 -4.86238823 -0.34731345 0 0 Z " fill="#E6E6E9" transform="translate(103,254)"/>
<path d="M0 0 C2.475 0.99 2.475 0.99 5 2 C5 2.66 5 3.32 5 4 C5.66 4.33 6.32 4.66 7 5 C6.01 5.33 5.02 5.66 4 6 C4.804375 6.4125 5.60875 6.825 6.4375 7.25 C9.33653505 9.22982881 9.35182485 9.75912425 10 13 C13.82576921 14.2752564 17.49796269 14.42083122 21.50390625 14.71875 C24 15 24 15 26 16 C26 16.99 26 17.98 26 19 C24.60335892 18.88437394 23.20768801 18.757008 21.8125 18.625 C21.03519531 18.55539062 20.25789063 18.48578125 19.45703125 18.4140625 C17 18 17 18 14.65625 17.03125 C11.35211416 15.74846785 8.1981664 15.33433953 4.6875 14.875 C3.43324219 14.70742188 2.17898438 14.53984375 0.88671875 14.3671875 C-0.06589844 14.24601562 -1.01851563 14.12484375 -2 14 C-0.68 13.34 0.64 12.68 2 12 C1.01 11.34 0.02 10.68 -1 10 C-0.67 6.7 -0.34 3.4 0 0 Z " fill="#1A2026" transform="translate(434,307)"/>
<path d="M0 0 C6.02702647 1.51211874 11.47281714 3.10480898 17 6 C18.66280559 6.35208873 20.33044734 6.68143633 22 7 C24.5058666 7.62919042 27.00374355 8.27265546 29.5 8.9375 C30.15097656 9.10701172 30.80195313 9.27652344 31.47265625 9.45117188 C35.09498421 10.41346708 38.55491625 11.52258908 42 13 C42 13.66 42 14.32 42 15 C44.475 15.495 44.475 15.495 47 16 C47 16.33 47 16.66 47 17 C44.36 17 41.72 17 39 17 C39 17.99 39 18.98 39 20 C38.34 20 37.68 20 37 20 C35 14.25 35 14.25 35 12 C34.360625 12.061875 33.72125 12.12375 33.0625 12.1875 C29.53433578 11.97148995 26.78268244 10.96998975 23.47265625 9.79296875 C20.11089944 8.71486981 16.70865553 8.11519472 13.2421875 7.47265625 C10.68301374 6.93317886 8.36908991 6.10557529 6 5 C6 4.34 6 3.68 6 3 C4.02 3 2.04 3 0 3 C0 2.01 0 1.02 0 0 Z " fill="#B3B6BE" transform="translate(309,258)"/>
<path d="M0 0 C6.93 0.495 6.93 0.495 14 1 C14 1.66 14 2.32 14 3 C15.32 3.33 16.64 3.66 18 4 C18 4.66 18 5.32 18 6 C19.65 6.66 21.3 7.32 23 8 C23 8.33 23 8.66 23 9 C21.35 9 19.7 9 18 9 C18 8.34 18 7.68 18 7 C17.13375 7.226875 16.2675 7.45375 15.375 7.6875 C11.28170605 8.0665087 9.43959315 7.15974453 6 5 C5.67 4.34 5.34 3.68 5 3 C4.34 3 3.68 3 3 3 C3.2475 3.7425 3.495 4.485 3.75 5.25 C4 8 4 8 2.1875 10.3125 C0 12 0 12 -2 12 C-2 8.14154023 -1.41561245 6.45055534 0 3 C0 2.01 0 1.02 0 0 Z " fill="#D5D9E5" transform="translate(390,289)"/>
<path d="M0 0 C1.98 0 3.96 0 6 0 C6.66 1.32 7.32 2.64 8 4 C7.4225 4.598125 6.845 5.19625 6.25 5.8125 C3.15261435 10.200463 1.67010836 14.92749003 0 20 C-3.375 19.6875 -3.375 19.6875 -7 19 C-7.66 18.01 -8.32 17.02 -9 16 C-8.21625 15.855625 -7.4325 15.71125 -6.625 15.5625 C-4.03578982 15.12201075 -4.03578982 15.12201075 -2 14 C-2.66 13.67 -3.32 13.34 -4 13 C-4 12.01 -4 11.02 -4 10 C-3.01 10 -2.02 10 -1 10 C-0.87625 9.030625 -0.7525 8.06125 -0.625 7.0625 C-0.41875 6.051875 -0.2125 5.04125 0 4 C0.66 3.67 1.32 3.34 2 3 C2 3.99 2 4.98 2 6 C2.66 5.67 3.32 5.34 4 5 C4 4.34 4 3.68 4 3 C2.35 3 0.7 3 -1 3 C-0.67 2.01 -0.34 1.02 0 0 Z " fill="#E4E6ED" transform="translate(409,298)"/>
<path d="M0 0 C-0.66 0 -1.32 0 -2 0 C-2 0.99 -2 1.98 -2 3 C-4.97 2.505 -4.97 2.505 -8 2 C-7.7834375 2.67546875 -7.566875 3.3509375 -7.34375 4.046875 C-6.92609375 5.38492187 -6.92609375 5.38492187 -6.5 6.75 C-6.2215625 7.63171875 -5.943125 8.5134375 -5.65625 9.421875 C-5 12 -5 12 -5 16 C-3.02 16.66 -1.04 17.32 1 18 C0.34 18.99 -0.32 19.98 -1 21 C-1.38499891 22.65549531 -1.72793135 24.3222433 -2 26 C-2.66 25.01 -3.32 24.02 -4 23 C-4.66 23.99 -5.32 24.98 -6 26 C-8.475 25.01 -8.475 25.01 -11 24 C-10.01 23.67 -9.02 23.34 -8 23 C-7.64484106 15.84420509 -8.07121625 10.5604756 -11 4 C-11.33 3.01 -11.66 2.02 -12 1 C-9.19301445 -1.80698555 -3.49996404 -1.25998705 0 0 Z " fill="#E0E2E4" transform="translate(97,331)"/>
<path d="M0 0 C0.33 0.99 0.66 1.98 1 3 C2.32 3 3.64 3 5 3 C5 5.31 5 7.62 5 10 C5.63808594 10.04898437 6.27617187 10.09796875 6.93359375 10.1484375 C7.75988281 10.22320312 8.58617187 10.29796875 9.4375 10.375 C10.26121094 10.44460938 11.08492188 10.51421875 11.93359375 10.5859375 C12.61550781 10.72257812 13.29742187 10.85921875 14 11 C14.33 11.66 14.66 12.32 15 13 C13.04020573 12.71831703 11.08217622 12.42433283 9.125 12.125 C8.03445313 11.96257812 6.94390625 11.80015625 5.8203125 11.6328125 C3 11 3 11 1 9 C-3.93057079 6.99434409 -8.86592109 5.3904797 -14 4 C-14 3.67 -14 3.34 -14 3 C-12.60974609 2.80083984 -12.60974609 2.80083984 -11.19140625 2.59765625 C-9.99386719 2.42105469 -8.79632813 2.24445313 -7.5625 2.0625 C-6.36753906 1.88847656 -5.17257812 1.71445312 -3.94140625 1.53515625 C-1.12044324 1.31014787 -1.12044324 1.31014787 0 0 Z " fill="#F3F8FB" transform="translate(355,289)"/>
<path d="M0 0 C1.47968324 0.14049518 2.95874516 0.28754826 4.4375 0.4375 C5.67306641 0.55931641 5.67306641 0.55931641 6.93359375 0.68359375 C9 1 9 1 10 2 C12.3711974 2.2309152 14.7203962 2.40313315 17.09765625 2.53515625 C18.16094398 2.59962196 18.16094398 2.59962196 19.24571228 2.66539001 C21.51773882 2.8021291 23.79008565 2.93238073 26.0625 3.0625 C27.59963475 3.15387098 29.13674458 3.24566234 30.67382812 3.33789062 C34.44894641 3.56347915 38.22436442 3.7832488 42 4 C41.67 4.66 41.34 5.32 41 6 C30.77 6 20.54 6 10 6 C10 5.34 10 4.68 10 4 C4.94990405 3.06213918 4.94990405 3.06213918 0 4 C0 2.68 0 1.36 0 0 Z " fill="#9C9FA6" transform="translate(337,214)"/>
<path d="M0 0 C0.07347656 0.95712891 0.07347656 0.95712891 0.1484375 1.93359375 C0.22320312 2.75988281 0.29796875 3.58617187 0.375 4.4375 C0.44460937 5.26121094 0.51421875 6.08492188 0.5859375 6.93359375 C0.72257812 7.61550781 0.85921875 8.29742187 1 9 C1.66 9.33 2.32 9.66 3 10 C1.865625 9.95875 0.73125 9.9175 -0.4375 9.875 C-5.14383562 9.85816159 -9.46316004 10.82378223 -14 12 C-14 11.34 -14 10.68 -14 10 C-14.99 10 -15.98 10 -17 10 C-15.68357706 7.36715412 -14.50771632 7.21753325 -11.8125 6.125 C-8.7884135 4.84205421 -2.96033206 0 0 0 Z " fill="#BFC4CE" transform="translate(127,251)"/>
<path d="M0 0 C2.475 0.495 2.475 0.495 5 1 C5 1.99 5 2.98 5 4 C5.66 4 6.32 4 7 4 C7 4.66 7 5.32 7 6 C7.61875 6.0825 8.2375 6.165 8.875 6.25 C11 7 11 7 12.25 8.75 C13.0957901 11.28737029 13.14764761 13.34234296 13 16 C10.03 15.505 10.03 15.505 7 15 C6.67 16.65 6.34 18.3 6 20 C5.01 20 4.02 20 3 20 C2.67 20.66 2.34 21.32 2 22 C1.67 21.01 1.34 20.02 1 19 C1.99 19 2.98 19 4 19 C4 17.68 4 16.36 4 15 C3.34 14.67 2.68 14.34 2 14 C3.93254772 11.9754262 5.63158688 10.57894208 8 9 C7.34 8.401875 6.68 7.80375 6 7.1875 C4 5 4 5 4 2 C2.68 1.67 1.36 1.34 0 1 C0 0.67 0 0.34 0 0 Z " fill="#9FA4AB" transform="translate(378,198)"/>
<path d="M0 0 C2.31 0.33 4.62 0.66 7 1 C7.103125 1.61875 7.20625 2.2375 7.3125 2.875 C7.87525373 5.36526484 7.87525373 5.36526484 11 7 C10.67 7.66 10.34 8.32 10 9 C12.31 9.66 14.62 10.32 17 11 C17 11.66 17 12.32 17 13 C16.34 13 15.68 13 15 13 C14.67 13.66 14.34 14.32 14 15 C14 14.34 14 13.68 14 13 C11.36 13.33 8.72 13.66 6 14 C6 11.69 6 9.38 6 7 C5.38125 6.773125 4.7625 6.54625 4.125 6.3125 C1.38589791 4.62070165 0.94975528 3.00755839 0 0 Z " fill="#EEF1F9" transform="translate(356,275)"/>
<path d="M0 0 C0.66 0 1.32 0 2 0 C2 2.64 2 5.28 2 8 C1.01 8 0.02 8 -1 8 C-1.33 9.32 -1.66 10.64 -2 12 C-2.33 11.34 -2.66 10.68 -3 10 C-5.90259811 8.6250851 -7.76138705 8 -11 8 C-11.33 7.01 -11.66 6.02 -12 5 C-11.01 5 -10.02 5 -9 5 C-8.67 4.01 -8.34 3.02 -8 2 C-8 2.66 -8 3.32 -8 4 C-6.02 4 -4.04 4 -2 4 C-2 3.34 -2 2.68 -2 2 C-1.34 2 -0.68 2 0 2 C0 1.34 0 0.68 0 0 Z " fill="#EBF1FB" transform="translate(376,287)"/>
<path d="M0 0 C1.485 0.99 1.485 0.99 3 2 C4.9896995 2.39013716 6.99019869 2.73202649 9 3 C9 3.99 9 4.98 9 6 C10.27875 6.144375 11.5575 6.28875 12.875 6.4375 C15.25692894 6.70642746 16.84452691 6.92226346 19 8 C18.67 8.99 18.34 9.98 18 11 C17.34 11 16.68 11 16 11 C16 10.34 16 9.68 16 9 C13.69 9.33 11.38 9.66 9 10 C8.34 8.68 7.68 7.36 7 6 C6.34 6 5.68 6 5 6 C5 6.66 5 7.32 5 8 C4.34 8 3.68 8 3 8 C0 2.25 0 2.25 0 0 Z " fill="#92979F" transform="translate(415,298)"/>
<path d="M0 0 C0.66 0.33 1.32 0.66 2 1 C2.99 1.33 3.98 1.66 5 2 C5.33 2.99 5.66 3.98 6 5 C6.33 4.34 6.66 3.68 7 3 C7.66 3 8.32 3 9 3 C9 4.32 9 5.64 9 7 C9.66 7.66 10.32 8.32 11 9 C4.65411291 8.70620893 -0.66333608 7.60769372 -6 4 C-6.33 3.34 -6.66 2.68 -7 2 C-5.68 2.33 -4.36 2.66 -3 3 C-3 2.34 -3 1.68 -3 1 C-2.01 0.67 -1.02 0.34 0 0 Z " fill="#DCDFE4" transform="translate(326,214)"/>
<path d="M0 0 C2.31 0.33 4.62 0.66 7 1 C7 1.66 7 2.32 7 3 C15.58 2.67 24.16 2.34 33 2 C32.34 2.99 31.68 3.98 31 5 C28.11083984 5.34057617 28.11083984 5.34057617 24.4609375 5.29296875 C22.50800781 5.2784668 22.50800781 5.2784668 20.515625 5.26367188 C19.13541077 5.23860388 17.75520244 5.21320902 16.375 5.1875 C14.98699337 5.17245517 13.59897133 5.15876641 12.2109375 5.14648438 C8.80690491 5.1110257 5.40364378 5.06160298 2 5 C1.34 3.35 0.68 1.7 0 0 Z " fill="#D7D9E0" transform="translate(6,344)"/>
<path d="M0 0 C1.32 0.66 2.64 1.32 4 2 C2.4375 5 2.4375 5 0 8 C-3.6875 8.4375 -3.6875 8.4375 -7 8 C-7.33 7.67 -7.66 7.34 -8 7 C-10.69235776 6.76321284 -13.36498156 6.57801975 -16.0625 6.4375 C-16.82111328 6.39431641 -17.57972656 6.35113281 -18.36132812 6.30664062 C-20.24065438 6.20026367 -22.12030244 6.09960066 -24 6 C-24 5.67 -24 5.34 -24 5 C-13.605 4.505 -13.605 4.505 -3 4 C-3 3.34 -3 2.68 -3 2 C-2.01 2 -1.02 2 0 2 C0 1.34 0 0.68 0 0 Z " fill="#ACAFB9" transform="translate(45,370)"/>
<path d="M0 0 C-0.66 2.64 -1.32 5.28 -2 8 C0.475 8.99 0.475 8.99 3 10 C3 10.33 3 10.66 3 11 C-0.63 11 -4.26 11 -8 11 C-7.34 10.34 -6.68 9.68 -6 9 C-6 8.01 -6 7.02 -6 6 C-6.99 5.67 -7.98 5.34 -9 5 C-7.35 5 -5.7 5 -4 5 C-4.33 3.35 -4.66 1.7 -5 0 C-6.32 -0.33 -7.64 -0.66 -9 -1 C-5.23375329 -2.25541557 -3.62811066 -1.37061958 0 0 Z " fill="#CFD5DD" transform="translate(435,309)"/>
<path d="M0 0 C0 0.66 0 1.32 0 2 C-3.28696233 2.79953138 -4.71023192 3.09658936 -8 2 C-8.33 2.99 -8.66 3.98 -9 5 C-11.4375 6.125 -11.4375 6.125 -14 7 C-14.99 7.495 -14.99 7.495 -16 8 C-18.3494053 7.39239518 -20.68529088 6.72870472 -23 6 C-20.30899268 3.30899268 -17.32951241 2.80251281 -13.75 1.875 C-12.76580078 1.60236328 -12.76580078 1.60236328 -11.76171875 1.32421875 C-7.75022975 0.26352683 -4.14258841 -0.19297772 0 0 Z " fill="#E3E5EC" transform="translate(63,341)"/>
<path d="M0 0 C3.1875 1.9375 3.1875 1.9375 6 4 C6.33 3.34 6.66 2.68 7 2 C9.475 2.99 9.475 2.99 12 4 C11.67 4.99 11.34 5.98 11 7 C10.65179959 8.66362417 10.31595508 10.32995171 10 12 C7.36 11.34 4.72 10.68 2 10 C2 9.67 2 9.34 2 9 C3.65 8.67 5.3 8.34 7 8 C5.32027858 6.32027858 3.20673313 5.78811897 1 5 C0.01 5 -0.98 5 -2 5 C-2.33 3.68 -2.66 2.36 -3 1 C-2.01 0.67 -1.02 0.34 0 0 Z " fill="#C8CBD5" transform="translate(368,294)"/>
<path d="M0 0 C1.65 0 3.3 0 5 0 C5 0.66 5 1.32 5 2 C6.65 2 8.3 2 10 2 C10 2.66 10 3.32 10 4 C10.66 4 11.32 4 12 4 C12.33 6.31 12.66 8.62 13 11 C12.4225 10.62875 11.845 10.2575 11.25 9.875 C9 8.70833333 9 8.70833333 6.75 9.875 C6.1725 10.24625 5.595 10.6175 5 11 C4.87625 9.865625 4.7525 8.73125 4.625 7.5625 C4.41875 6.386875 4.2125 5.21125 4 4 C3.34 3.67 2.68 3.34 2 3 C2 2.34 2 1.68 2 1 C1.34 0.67 0.68 0.34 0 0 Z " fill="#EEEEF8" transform="translate(310,261)"/>
<path d="M0 0 C11.55 0.33 23.1 0.66 35 1 C35.495 2.485 35.495 2.485 36 4 C34.33333333 4 32.66666667 4 31 4 C31 3.34 31 2.68 31 2 C28.91631462 2.31014392 26.83306332 2.6232052 24.75 2.9375 C23.00976562 3.19853516 23.00976562 3.19853516 21.234375 3.46484375 C18.76893039 3.8727736 16.40575438 4.33901303 14 5 C14 4.34 14 3.68 14 3 C13.07316406 2.95101562 12.14632813 2.90203125 11.19140625 2.8515625 C9.99386719 2.77679688 8.79632813 2.70203125 7.5625 2.625 C6.36753906 2.55539063 5.17257812 2.48578125 3.94140625 2.4140625 C2.97074219 2.27742187 2.00007813 2.14078125 1 2 C0.67 1.34 0.34 0.68 0 0 Z " fill="#C6C8D4" transform="translate(291,191)"/>
<path d="M0 0 C3.3 0.33 6.6 0.66 10 1 C8.68 1.33 7.36 1.66 6 2 C6 3.32 6 4.64 6 6 C8.475 6.99 8.475 6.99 11 8 C11 8.33 11 8.66 11 9 C6.05 9 1.1 9 -4 9 C-4 8.67 -4 8.34 -4 8 C-2.35 8 -0.7 8 1 8 C1.66 6.35 2.32 4.7 3 3 C2.01 2.67 1.02 2.34 0 2 C0 1.34 0 0.68 0 0 Z " fill="#B0B4BE" transform="translate(346,196)"/>
<path d="M0 0 C1.13682034 1.70523051 2.27207074 3.41151646 3.40234375 5.12109375 C3.90894531 5.88550781 4.41554687 6.64992188 4.9375 7.4375 C5.44152344 8.19933594 5.94554687 8.96117187 6.46484375 9.74609375 C7.91843924 11.88025304 9.43377788 13.94754772 11 16 C10.4225 15.814375 9.845 15.62875 9.25 15.4375 C6.79307475 14.95976454 5.35602466 15.24270636 3 16 C2.87625 15.195625 2.7525 14.39125 2.625 13.5625 C2.315625 12.2940625 2.315625 12.2940625 2 11 C1.34 10.67 0.68 10.34 0 10 C0 6.7 0 3.4 0 0 Z " fill="#D3D3DA" transform="translate(190,310)"/>
<path d="M0 0 C5.47028861 -0.09729762 10.60874898 -0.03236722 16 1 C18.99652462 1.36651706 21.99751487 1.68640711 25 2 C25 2.33 25 2.66 25 3 C21.91722144 3.1974877 18.8337715 3.38123332 15.75 3.5625 C14.87730469 3.61857422 14.00460937 3.67464844 13.10546875 3.73242188 C12.26113281 3.78076172 11.41679687 3.82910156 10.546875 3.87890625 C9.77182617 3.9260376 8.99677734 3.97316895 8.19824219 4.02172852 C5.96887415 3.99969234 4.13101433 3.6303897 2 3 C2 2.34 2 1.68 2 1 C1.34 0.67 0.68 0.34 0 0 Z " fill="#484C51" transform="translate(350,194)"/>
<path d="M0 0 C0.33 1.32 0.66 2.64 1 4 C0.34 4 -0.32 4 -1 4 C-1 4.99 -1 5.98 -1 7 C-1.66 7 -2.32 7 -3 7 C-3 7.66 -3 8.32 -3 9 C-2.34 9 -1.68 9 -1 9 C-1.33 9.99 -1.66 10.98 -2 12 C-3.98 12 -5.96 12 -8 12 C-8.66 10.68 -9.32 9.36 -10 8 C-8 6 -8 6 -4.875 5.875 C-3.92625 5.91625 -2.9775 5.9575 -2 6 C-1.855625 5.38125 -1.71125 4.7625 -1.5625 4.125 C-1 2 -1 2 0 0 Z " fill="#C8C7CF" transform="translate(146,281)"/>
<path d="M0 0 C0.66 1.32 1.32 2.64 2 4 C2.66 3.67 3.32 3.34 4 3 C4.33 3.99 4.66 4.98 5 6 C3.865625 6.5775 2.73125 7.155 1.5625 7.75 C-1.34815887 9.25429842 -1.34815887 9.25429842 -2.625 12.125 C-2.74875 12.74375 -2.8725 13.3625 -3 14 C-5.5625 15.25 -5.5625 15.25 -8 16 C-7.34 14.68 -6.68 13.36 -6 12 C-5.34 12 -4.68 12 -4 12 C-3.8453125 10.700625 -3.8453125 10.700625 -3.6875 9.375 C-2.96601586 5.83316877 -1.72876739 3.15687958 0 0 Z " fill="#EBEAEF" transform="translate(163,170)"/>
<path d="M0 0 C-0.66 0 -1.32 0 -2 0 C-2 0.99 -2 1.98 -2 3 C-4.97 2.505 -4.97 2.505 -8 2 C-7.7834375 2.68707031 -7.566875 3.37414062 -7.34375 4.08203125 C-7.0653125 4.98308594 -6.786875 5.88414062 -6.5 6.8125 C-6.2215625 7.70582031 -5.943125 8.59914063 -5.65625 9.51953125 C-5 12 -5 12 -5 15 C-5.66 15 -6.32 15 -7 15 C-7.19335938 14.32453125 -7.38671875 13.6490625 -7.5859375 12.953125 C-7.84632812 12.06109375 -8.10671875 11.1690625 -8.375 10.25 C-8.63023438 9.36828125 -8.88546875 8.4865625 -9.1484375 7.578125 C-9.9209934 5.23919428 -10.83625676 3.16557438 -12 1 C-9.19301445 -1.80698555 -3.49996404 -1.25998705 0 0 Z " fill="#898C90" transform="translate(97,331)"/>
<path d="M0 0 C-0.49831724 3.68754757 -1.10067643 5.60490662 -4 8 C-2.68 8.66 -1.36 9.32 0 10 C-3 12 -3 12 -7 12 C-7.125 6.25 -7.125 6.25 -6 4 C-6.66 3.34 -7.32 2.68 -8 2 C-2.25 0 -2.25 0 0 0 Z " fill="#111318" transform="translate(108,251)"/>
<path d="M0 0 C3.96 0 7.92 0 12 0 C12.33 0.66 12.66 1.32 13 2 C15.01669827 3.13350534 15.01669827 3.13350534 17 4 C16.34 4.66 15.68 5.32 15 6 C14.4225 5.649375 13.845 5.29875 13.25 4.9375 C11.11740274 3.86620679 11.11740274 3.86620679 9.125 4.0625 C5.90691172 5.48224483 3.62834083 7.67033426 1 10 C2.29299694 7.11562221 3.65941363 5.12780579 6 3 C3.03 2.505 3.03 2.505 0 2 C0 1.34 0 0.68 0 0 Z " fill="#A5ABB3" transform="translate(328,192)"/>
<path d="M0 0 C2.31 0 4.62 0 7 0 C7.33 1.65 7.66 3.3 8 5 C6.35 5 4.7 5 3 5 C1.93453047 8.1964086 1.92572162 10.65747276 2 14 C1.67 14 1.34 14 1 14 C1 12.35 1 10.7 1 9 C-0.32 8.67 -1.64 8.34 -3 8 C-2.34 7.67 -1.68 7.34 -1 7 C-0.59270772 4.67843403 -0.25561323 2.3431213 0 0 Z " fill="#EFF3FD" transform="translate(379,289)"/>
<path d="M0 0 C0 0.66 0 1.32 0 2 C1.32 2.33 2.64 2.66 4 3 C2.8125 5.5 2.8125 5.5 1 8 C-1.6875 8.3125 -1.6875 8.3125 -4 8 C-4 7.34 -4 6.68 -4 6 C-4.99 5.67 -5.98 5.34 -7 5 C-6.34 5 -5.68 5 -5 5 C-5.33 4.01 -5.66 3.02 -6 2 C-2.25 0 -2.25 0 0 0 Z " fill="#CAD1DF" transform="translate(346,196)"/>
<path d="M0 0 C2.10544013 0.28232721 4.20933589 0.5761898 6.3125 0.875 C7.48425781 1.03742188 8.65601563 1.19984375 9.86328125 1.3671875 C13 2 13 2 16 4 C16 4.99 16 5.98 16 7 C15.030625 7.12375 14.06125 7.2475 13.0625 7.375 C11.5465625 7.684375 11.5465625 7.684375 10 8 C9.67 8.66 9.34 9.32 9 10 C8.67 7.69 8.34 5.38 8 3 C6.865625 2.87625 5.73125 2.7525 4.5625 2.625 C3.386875 2.41875 2.21125 2.2125 1 2 C0.67 1.34 0.34 0.68 0 0 Z " fill="#D4D8DF" transform="translate(293,254)"/>
<path d="M0 0 C0.99 0 1.98 0 3 0 C3 2.31 3 4.62 3 7 C3.63808594 7.04898437 4.27617187 7.09796875 4.93359375 7.1484375 C5.75988281 7.22320312 6.58617187 7.29796875 7.4375 7.375 C8.26121094 7.44460938 9.08492188 7.51421875 9.93359375 7.5859375 C10.95646484 7.79089844 10.95646484 7.79089844 12 8 C12.33 8.66 12.66 9.32 13 10 C11.04020573 9.71831703 9.08217622 9.42433283 7.125 9.125 C6.03445313 8.96257812 4.94390625 8.80015625 3.8203125 8.6328125 C1 8 1 8 -1 6 C-2.31747324 5.30251417 -3.64914193 4.63040043 -5 4 C-3.35 3.34 -1.7 2.68 0 2 C0 1.34 0 0.68 0 0 Z " fill="#CBCFD5" transform="translate(357,292)"/>
<path d="M0 0 C3.63 0.33 7.26 0.66 11 1 C11 1.66 11 2.32 11 3 C12.32 3.33 13.64 3.66 15 4 C15 4.66 15 5.32 15 6 C16.65 6.66 18.3 7.32 20 8 C20 8.33 20 8.66 20 9 C18.35 9 16.7 9 15 9 C15 8.34 15 7.68 15 7 C13.68 6.67 12.36 6.34 11 6 C11 5.34 11 4.68 11 4 C7.34543185 3.24758891 3.68266103 2.59950296 0 2 C0 1.34 0 0.68 0 0 Z " fill="#71787F" transform="translate(393,289)"/>
<path d="M0 0 C0 0.99 0 1.98 0 3 C1.32 3 2.64 3 4 3 C4 3.66 4 4.32 4 5 C2.35 5 0.7 5 -1 5 C-1.33 5.66 -1.66 6.32 -2 7 C-3.65 7 -5.3 7 -7 7 C-7.33 5.68 -7.66 4.36 -8 3 C-3.375 0 -3.375 0 0 0 Z " fill="#EFF4F5" transform="translate(101,262)"/>
<path d="M0 0 C2.31 0.33 4.62 0.66 7 1 C7 1.66 7 2.32 7 3 C8.65 3.33 10.3 3.66 12 4 C12 4.33 12 4.66 12 5 C9.36 5 6.72 5 4 5 C4 5.99 4 6.98 4 8 C3.34 8 2.68 8 2 8 C0 2.25 0 2.25 0 0 Z " fill="#EBEFF6" transform="translate(344,270)"/>
<path d="M0 0 C0.33 1.32 0.66 2.64 1 4 C-2.3 4.33 -5.6 4.66 -9 5 C-9 4.34 -9 3.68 -9 3 C-10.32 2.67 -11.64 2.34 -13 2 C-8.46298506 0.54815522 -4.81938524 -0.23509196 0 0 Z " fill="#F0F2F7" transform="translate(346,219)"/>
<path d="M0 0 C0.66 0.66 1.32 1.32 2 2 C0.68 2 -0.64 2 -2 2 C0.31881505 4.67901932 2.31814468 5.66204403 5.6875 6.6875 C6.49574219 6.93886719 7.30398438 7.19023437 8.13671875 7.44921875 C8.75160156 7.63097656 9.36648438 7.81273437 10 8 C9.67 8.66 9.34 9.32 9 10 C8.01 10 7.02 10 6 10 C6 9.34 6 8.68 6 8 C3.69 8.66 1.38 9.32 -1 10 C-2.32 7.03 -3.64 4.06 -5 1 C-2.625 0.375 -2.625 0.375 0 0 Z " fill="#DBDEE7" transform="translate(321,203)"/>
<path d="M0 0 C0.66 0.66 1.32 1.32 2 2 C0.783125 1.95875 -0.43375 1.9175 -1.6875 1.875 C-5.21592456 1.875 -7.84749675 2.28045277 -11 4 C-11.33 4.66 -11.66 5.32 -12 6 C-12.66 6 -13.32 6 -14 6 C-14.3125 3.6875 -14.3125 3.6875 -14 1 C-9.77395052 -3.22604948 -5.13278003 -1.90588492 0 0 Z " fill="#B5B5BF" transform="translate(198,124)"/>
<path d="M0 0 C0.99 0 1.98 0 3 0 C3 0.99 3 1.98 3 3 C8.94 3.99 8.94 3.99 15 5 C15 5.33 15 5.66 15 6 C8.73 6 2.46 6 -4 6 C-3.01 5.67 -2.02 5.34 -1 5 C-0.67 3.35 -0.34 1.7 0 0 Z " fill="#76787E" transform="translate(410,313)"/>
<path d="M0 0 C0.94314127 3.41610225 1.08065117 6.45134864 1 10 C0.34 10 -0.32 10 -1 10 C-1 15.28 -1 20.56 -1 26 C-0.34 26.33 0.32 26.66 1 27 C0.01 27.33 -0.98 27.66 -2 28 C-2.33 28.66 -2.66 29.32 -3 30 C-2.88891335 26.4994157 -2.75857986 22.99979245 -2.625 19.5 C-2.5940625 18.51773437 -2.563125 17.53546875 -2.53125 16.5234375 C-2.29952461 10.73030282 -1.63047777 5.56748508 0 0 Z " fill="#B5B7BC" transform="translate(172,255)"/>
<path d="M0 0 C2.475 0.495 2.475 0.495 5 1 C5 1.99 5 2.98 5 4 C5.66 4 6.32 4 7 4 C7 4.66 7 5.32 7 6 C7.61875 6.0825 8.2375 6.165 8.875 6.25 C11 7 11 7 12.3125 8.875 C13 11 13 11 12 14 C11.34 14 10.68 14 10 14 C9.566875 13.071875 9.13375 12.14375 8.6875 11.1875 C7.23894475 8.07352146 7.23894475 8.07352146 5.3125 6.3125 C4.879375 5.879375 4.44625 5.44625 4 5 C4 4.01 4 3.02 4 2 C2.68 1.67 1.36 1.34 0 1 C0 0.67 0 0.34 0 0 Z " fill="#595C64" transform="translate(378,198)"/>
<path d="M0 0 C0.91007812 0.10183594 1.82015625 0.20367187 2.7578125 0.30859375 C3.45648438 0.39238281 4.15515625 0.47617187 4.875 0.5625 C4.875 1.2225 4.875 1.8825 4.875 2.5625 C3.885 2.5625 2.895 2.5625 1.875 2.5625 C1.875 3.2225 1.875 3.8825 1.875 4.5625 C0.225 4.8925 -1.425 5.2225 -3.125 5.5625 C-3.125 4.2425 -3.125 2.9225 -3.125 1.5625 C-4.445 1.2325 -5.765 0.9025 -7.125 0.5625 C-4.50184968 -0.74907516 -2.89466564 -0.33399988 0 0 Z " fill="#EDECF7" transform="translate(40.125,369.4375)"/>
<path d="M0 0 C0.66 0.33 1.32 0.66 2 1 C0.576875 2.3303125 0.576875 2.3303125 -0.875 3.6875 C-3.46748883 6.26164575 -4.9525021 8.43850715 -6 12 C-8.97 11.505 -8.97 11.505 -12 11 C-8.19588166 7.08060535 -4.18423892 3.50897269 0 0 Z " fill="#27282B" transform="translate(125,332)"/>
<path d="M0 0 C2.125 0.375 2.125 0.375 4 1 C3.67 2.98 3.34 4.96 3 7 C0.69 6.67 -1.62 6.34 -4 6 C-2.84826645 3.53199953 -1.95216435 1.95216435 0 0 Z " fill="#DDE6F2" transform="translate(335,196)"/>
<path d="M0 0 C1.98 0.66 3.96 1.32 6 2 C1.55461924 6.158582 -3.92244195 9.07454402 -10.13671875 8.9609375 C-12.0625 8.6875 -12.0625 8.6875 -15 8 C-15 7.67 -15 7.34 -15 7 C-14.24074219 6.93941406 -13.48148437 6.87882813 -12.69921875 6.81640625 C-11.70535156 6.73261719 -10.71148437 6.64882812 -9.6875 6.5625 C-8.70136719 6.48128906 -7.71523438 6.40007812 -6.69921875 6.31640625 C-3.90624401 6.08187441 -3.90624401 6.08187441 -1 5 C-0.67 3.35 -0.34 1.7 0 0 Z " fill="#C2C2C6" transform="translate(281,187)"/>
<path d="M0 0 C4.29 0.99 8.58 1.98 13 3 C13 3.66 13 4.32 13 5 C14.32 5.33 15.64 5.66 17 6 C13.78503292 7.07165569 12.60203926 6.94376088 9.375 6.25 C8.57835937 6.09015625 7.78171875 5.9303125 6.9609375 5.765625 C5.99027344 5.38664062 5.99027344 5.38664062 5 5 C4.67 4.01 4.34 3.02 4 2 C2.68 2 1.36 2 0 2 C0 1.34 0 0.68 0 0 Z " fill="#676D72" transform="translate(376,282)"/>
<path d="M0 0 C0.66 0.33 1.32 0.66 2 1 C1.22914063 1.67546875 0.45828125 2.3509375 -0.3359375 3.046875 C-1.34924574 3.94759344 -2.36225071 4.84865313 -3.375 5.75 C-3.88289062 6.1934375 -4.39078125 6.636875 -4.9140625 7.09375 C-7.61932073 9.5142442 -9.67633768 11.58718389 -11 15 C-12.32 14.34 -13.64 13.68 -15 13 C-13.43910974 11.58155991 -11.8762111 10.16532975 -10.3125 8.75 C-9.44238281 7.96109375 -8.57226562 7.1721875 -7.67578125 6.359375 C-5.17579137 4.15500436 -2.62054272 2.05866059 0 0 Z " fill="#252527" transform="translate(175,237)"/>
<path d="M0 0 C3.96 0 7.92 0 12 0 C11.67 0.99 11.34 1.98 11 3 C7.37 3.33 3.74 3.66 0 4 C0 2.68 0 1.36 0 0 Z " fill="#DDE0EC" transform="translate(352,198)"/>
<path d="M0 0 C3.96 0.99 3.96 0.99 8 2 C6.68 3.65 5.36 5.3 4 7 C1.03 6.505 1.03 6.505 -2 6 C-1.34 4.02 -0.68 2.04 0 0 Z " fill="#E1E7EF" transform="translate(327,192)"/>
<path d="M0 0 C0 0.66 0 1.32 0 2 C1.32 1.67 2.64 1.34 4 1 C4 1.99 4 2.98 4 4 C5.43750191 5.68798827 5.43750191 5.68798827 7 7 C6.43152344 6.80664062 5.86304688 6.61328125 5.27734375 6.4140625 C0.54635062 4.81863577 -4.18794425 3.33099414 -9 2 C-9 1.67 -9 1.34 -9 1 C-2.25 0 -2.25 0 0 0 Z " fill="#BEBEC3" transform="translate(318,281)"/>
<path d="M0 0 C1.65 0.33 3.3 0.66 5 1 C4 4 4 4 2 7 C2 7.66 2 8.32 2 9 C1.01 9 0.02 9 -1 9 C-1.33 6.69 -1.66 4.38 -2 2 C-1.34 2 -0.68 2 0 2 C0 1.34 0 0.68 0 0 Z " fill="#EDF0F2" transform="translate(340,273)"/>
<path d="M0 0 C0.66 0 1.32 0 2 0 C2 0.66 2 1.32 2 2 C2.99 2.33 3.98 2.66 5 3 C4.195625 3.12375 3.39125 3.2475 2.5625 3.375 C1.2940625 3.684375 1.2940625 3.684375 0 4 C-0.33 4.66 -0.66 5.32 -1 6 C-3.0625 7.125 -3.0625 7.125 -5 8 C-6 7 -6 7 -6.0625 4.4375 C-6.041875 3.633125 -6.02125 2.82875 -6 2 C-3.03 2.495 -3.03 2.495 0 3 C0 2.01 0 1.02 0 0 Z " fill="#EEF1F5" transform="translate(95,331)"/>
<path d="M0 0 C0.66 0.33 1.32 0.66 2 1 C4.09048049 1.58794764 5.82365547 2 8 2 C7.67 3.65 7.34 5.3 7 7 C2.52761347 5.58192622 -1.71146306 3.88695626 -6 2 C-2.25 0.875 -2.25 0.875 0 2 C0 1.34 0 0.68 0 0 Z " fill="#DDDCE0" transform="translate(311,209)"/>
<path d="M0 0 C1.74627478 2.61941217 2.38722388 4.03824877 3 7 C0.1875 7.625 0.1875 7.625 -3 8 C-3.99 7.34 -4.98 6.68 -6 6 C-6.99 6.495 -6.99 6.495 -8 7 C-8.99 6.34 -9.98 5.68 -11 5 C-9.52168779 4.80587819 -8.04230684 4.61987869 -6.5625 4.4375 C-5.73878906 4.33308594 -4.91507812 4.22867187 -4.06640625 4.12109375 C-3.04353516 4.06115234 -3.04353516 4.06115234 -2 4 C-1.67 4.33 -1.34 4.66 -1 5 C-0.67 3.35 -0.34 1.7 0 0 Z " fill="#434649" transform="translate(92,351)"/>
<path d="M0 0 C0.66 0.33 1.32 0.66 2 1 C2 1.66 2 2.32 2 3 C2.66 3.33 3.32 3.66 4 4 C3.195625 4.12375 2.39125 4.2475 1.5625 4.375 C0.2940625 4.684375 0.2940625 4.684375 -1 5 C-1.33 5.66 -1.66 6.32 -2 7 C-2.66 6.67 -3.32 6.34 -4 6 C-6.00800456 6.28112064 -8.01014051 6.61067967 -10 7 C-7.17446016 2.76169024 -4.87819112 3.02284652 0 2 C0 1.34 0 0.68 0 0 Z " fill="#B7B7BF" transform="translate(191,238)"/>
<path d="M0 0 C0.33 0.66 0.66 1.32 1 2 C0.484375 2.5775 -0.03125 3.155 -0.5625 3.75 C-2.26505193 5.87827523 -2.26505193 5.87827523 -1.6875 8.25 C-1.460625 8.8275 -1.23375 9.405 -1 10 C0.65 10.33 2.3 10.66 4 11 C4 11.33 4 11.66 4 12 C0.7 12 -2.6 12 -6 12 C-4.81819916 6.97734643 -3.55007718 3.9050849 0 0 Z " fill="#D7D6D9" transform="translate(154,186)"/>
<path d="M0 0 C2.31 0 4.62 0 7 0 C7.25 2.8125 7.25 2.8125 7 6 C5 7.875 5 7.875 3 9 C2.61866701 7.0085944 2.28674418 5.00720923 2 3 C2.33 2.67 2.66 2.34 3 2 C2.01 1.34 1.02 0.68 0 0 Z " fill="#D4D4D6" transform="translate(272,126)"/>
<path d="M0 0 C-4.55184719 3.4371091 -8.68477584 5.93899471 -14 8 C-14 7.01 -14 6.02 -14 5 C-11.08235 3.0549 -9.37462715 2.54723683 -6 2 C-6 1.34 -6 0.68 -6 0 C-3.50907189 -1.24546405 -2.58919267 -0.7767578 0 0 Z " fill="#DFE0E5" transform="translate(135,327)"/>
<path d="M0 0 C2.475 0.99 2.475 0.99 5 2 C5 2.66 5 3.32 5 4 C5.66 4.33 6.32 4.66 7 5 C5.35 5.33 3.7 5.66 2 6 C2 6.66 2 7.32 2 8 C1.34 8 0.68 8 0 8 C-0.33 8.66 -0.66 9.32 -1 10 C-0.67 6.7 -0.34 3.4 0 0 Z " fill="#454B4F" transform="translate(434,307)"/>
<path d="M0 0 C0.66 1.32 1.32 2.64 2 4 C0.35 4 -1.3 4 -3 4 C-3.33 4.99 -3.66 5.98 -4 7 C-5.8125 8.25 -5.8125 8.25 -8 9 C-9.32 8.67 -10.64 8.34 -12 8 C-8.04 5.36 -4.08 2.72 0 0 Z " fill="#D4D4D9" transform="translate(155,298)"/>
<path d="M0 0 C0 0.99 0 1.98 0 3 C-1.03125 3.144375 -2.0625 3.28875 -3.125 3.4375 C-6.42549813 3.91660457 -9.71268341 4.43875083 -13 5 C-13 4.34 -13 3.68 -13 3 C-12.2575 2.71125 -11.515 2.4225 -10.75 2.125 C-8.06203107 1.09690198 -8.06203107 1.09690198 -5.9375 -0.1875 C-3.5476033 -1.18971474 -2.39624834 -0.85580298 0 0 Z " fill="#EFF4FB" transform="translate(126,258)"/>
<path d="M0 0 C1.1725131 0.95117134 2.33787015 1.91117009 3.5 2.875 C4.47453125 3.67550781 4.47453125 3.67550781 5.46875 4.4921875 C5.9740625 4.98976563 6.479375 5.48734375 7 6 C7 6.66 7 7.32 7 8 C7.66 8.33 8.32 8.66 9 9 C3.125 8.125 3.125 8.125 2 7 C1.34 7.66 0.68 8.32 0 9 C0 6.03 0 3.06 0 0 Z " fill="#DEDEE4" transform="translate(201,326)"/>
<path d="M0 0 C1.45823212 -0.0270043 2.91660675 -0.04639787 4.375 -0.0625 C5.18710937 -0.07410156 5.99921875 -0.08570313 6.8359375 -0.09765625 C9 0 9 0 11 1 C11 1.99 11 2.98 11 4 C9.54119891 3.85892253 8.08296449 3.71197585 6.625 3.5625 C5.40683594 3.44068359 5.40683594 3.44068359 4.1640625 3.31640625 C2 3 2 3 0 2 C0 1.34 0 0.68 0 0 Z " fill="#C1C5C8" transform="translate(449,322)"/>
<path d="M0 0 C0.99 0.33 1.98 0.66 3 1 C2.67 1.66 2.34 2.32 2 3 C4.31 3.66 6.62 4.32 9 5 C9 5.66 9 6.32 9 7 C8.34 7 7.68 7 7 7 C6.67 7.66 6.34 8.32 6 9 C6 8.34 6 7.68 6 7 C3.03 6.505 3.03 6.505 0 6 C0 4.02 0 2.04 0 0 Z " fill="#F0F5FC" transform="translate(364,281)"/>
<path d="M0 0 C-3.78713193 1.26237731 -6.25651933 0.67558873 -10.1875 0.0625 C-11.45980469 -0.13214844 -12.73210937 -0.32679688 -14.04296875 -0.52734375 C-15.01878906 -0.68332031 -15.99460937 -0.83929688 -17 -1 C-17 -1.33 -17 -1.66 -17 -2 C-10.0668521 -3.28988798 -6.2860511 -3.50849364 0 0 Z " fill="#6C7276" transform="translate(449,322)"/>
<path d="M0 0 C1.32 0 2.64 0 4 0 C4 0.66 4 1.32 4 2 C6.475 2.99 6.475 2.99 9 4 C9 4.33 9 4.66 9 5 C5.37 5 1.74 5 -2 5 C-1.34 4.34 -0.68 3.68 0 3 C0 2.01 0 1.02 0 0 Z " fill="#C6CDD5" transform="translate(429,315)"/>
<path d="M0 0 C0.66 0.33 1.32 0.66 2 1 C1.67 2.65 1.34 4.3 1 6 C0.443125 5.79375 -0.11375 5.5875 -0.6875 5.375 C-3.659538 4.89304789 -5.31979941 5.73434972 -8 7 C-8.33 6.34 -8.66 5.68 -9 5 C-7.54735962 4.1361871 -6.0876837 3.28419546 -4.625 2.4375 C-3.40683594 1.72400391 -3.40683594 1.72400391 -2.1640625 0.99609375 C-1.44992188 0.66738281 -0.73578125 0.33867187 0 0 Z " fill="#D6D6D9" transform="translate(131,313)"/>
<path d="M0 0 C1.72526042 1.07421875 3.45052083 2.1484375 5.17578125 3.22265625 C4.84578125 4.21265625 4.51578125 5.20265625 4.17578125 6.22265625 C3.41265625 5.89265625 2.64953125 5.56265625 1.86328125 5.22265625 C-0.8149101 4.04828939 -0.8149101 4.04828939 -3.82421875 4.22265625 C-4.15421875 2.90265625 -4.48421875 1.58265625 -4.82421875 0.22265625 C-1.82421875 -0.77734375 -1.82421875 -0.77734375 0 0 Z " fill="#D2DBE4" transform="translate(369.82421875,294.77734375)"/>
<path d="M0 0 C3.625 0.375 3.625 0.375 7 1 C7 1.66 7 2.32 7 3 C7.66 3 8.32 3 9 3 C9.33 2.34 9.66 1.68 10 1 C10 1.99 10 2.98 10 4 C10.66 4.33 11.32 4.66 12 5 C9.03 4.67 6.06 4.34 3 4 C3 3.34 3 2.68 3 2 C1.35 2 -0.3 2 -2 2 C-1.34 1.34 -0.68 0.68 0 0 Z " fill="#D2D4DF" transform="translate(354,202)"/>
<path d="M0 0 C2.31 0.33 4.62 0.66 7 1 C7 1.66 7 2.32 7 3 C8.32 3.33 9.64 3.66 11 4 C10 5 10 5 8.15234375 5.09765625 C6.1015625 5.06510417 4.05078125 5.03255208 2 5 C1.34 3.35 0.68 1.7 0 0 Z " fill="#DEDFE6" transform="translate(6,344)"/>
<path d="M0 0 C0.66 0 1.32 0 2 0 C2 1.32 2 2.64 2 4 C2.66 4.66 3.32 5.32 4 6 C2.54077307 5.88590407 1.08259402 5.75834456 -0.375 5.625 C-1.59316406 5.52058594 -1.59316406 5.52058594 -2.8359375 5.4140625 C-5 5 -5 5 -7 3 C-5.68 3 -4.36 3 -3 3 C-2.67 2.34 -2.34 1.68 -2 1 C-1.34 1.33 -0.68 1.66 0 2 C0 1.34 0 0.68 0 0 Z " fill="#CBCDD6" transform="translate(333,217)"/>
<path d="M0 0 C2 0.75 2 0.75 5 2.75 C4.01 2.75 3.02 2.75 2 2.75 C1.67 3.74 1.34 4.73 1 5.75 C-0.98 4.43 -2.96 3.11 -5 1.75 C-2 -0.25 -2 -0.25 0 0 Z " fill="#D6D5DD" transform="translate(206,352.25)"/>
<path d="M0 0 C0.66 0 1.32 0 2 0 C1.68795779 3.43246436 1.35261037 5.53405058 -0.75 8.3125 C-3.2252397 10.16892978 -4.95281822 10.66142425 -8 11 C-6.36579592 9.28408572 -4.87407865 7.91852148 -2.875 6.625 C-0.49621428 4.56338571 -0.33143173 3.06574351 0 0 Z " fill="#484951" transform="translate(389,220)"/>
<path d="M0 0 C2 3 2 3 1.625 6.1875 C1.41875 7.115625 1.2125 8.04375 1 9 C-0.98 8.34 -2.96 7.68 -5 7 C-4.01 6.67 -3.02 6.34 -2 6 C-1.855625 5.195625 -1.71125 4.39125 -1.5625 3.5625 C-1 1 -1 1 0 0 Z " fill="#C8CCCE" transform="translate(91,348)"/>
<path d="M0 0 C0.66 0.33 1.32 0.66 2 1 C0.88625 1.6496875 0.88625 1.6496875 -0.25 2.3125 C-2.97281784 3.87754741 -2.97281784 3.87754741 -5 5.75 C-7 7 -7 7 -9.75 6.6875 C-10.4925 6.460625 -11.235 6.23375 -12 6 C-9.48617788 4.32411859 -7.17052712 3.05969689 -4.4375 1.8125 C-3.65246094 1.44769531 -2.86742188 1.08289063 -2.05859375 0.70703125 C-1.37925781 0.47371094 -0.69992188 0.24039062 0 0 Z " fill="#C0C4CB" transform="translate(110,323)"/>
<path d="M0 0 C0.33 0.66 0.66 1.32 1 2 C3.11327425 2.90725434 3.11327425 2.90725434 5.5625 3.625 C6.38878906 3.88539063 7.21507812 4.14578125 8.06640625 4.4140625 C9.02353516 4.70410156 9.02353516 4.70410156 10 5 C10 5.66 10 6.32 10 7 C7.69 6.67 5.38 6.34 3 6 C3 5.34 3 4.68 3 4 C2.01 4 1.02 4 0 4 C0 2.68 0 1.36 0 0 Z " fill="#CDD0DD" transform="translate(381,298)"/>
<path d="M0 0 C2 0 2 0 3.625 1.375 C5 3 5 3 5 5 C2.36 5 -0.28 5 -3 5 C-3 4.34 -3 3.68 -3 3 C-2.01 3 -1.02 3 0 3 C0 2.01 0 1.02 0 0 Z " fill="#CDCCD3" transform="translate(357,225)"/>
<path d="M0 0 C4.95 0.33 9.9 0.66 15 1 C15 1.33 15 1.66 15 2 C10.05 2.33 5.1 2.66 0 3 C0 2.01 0 1.02 0 0 Z " fill="#303238" transform="translate(360,195)"/>
<path d="M0 0 C0 0.66 0 1.32 0 2 C-4.40914783 3.10228696 -8.48382401 3.07654536 -13 3 C-8.54370064 0.02913376 -5.32064558 -0.12092376 0 0 Z " fill="#B6BBC0" transform="translate(63,341)"/>
<path d="M0 0 C-1.32 0.99 -2.64 1.98 -4 3 C-3.34 3.33 -2.68 3.66 -2 4 C-2 4.66 -2 5.32 -2 6 C-3.32 5.67 -4.64 5.34 -6 5 C-6 4.01 -6 3.02 -6 2 C-6.66 1.67 -7.32 1.34 -8 1 C-4.93251126 -0.86240388 -3.40254489 -1.2151946 0 0 Z " fill="#CCCDD2" transform="translate(82,336)"/>
<path d="M0 0 C1 4 1 4 1 6 C-0.051875 5.5359375 -0.051875 5.5359375 -1.125 5.0625 C-4.08936657 3.96697322 -6.87698108 3.43577008 -10 3 C-10 2.67 -10 2.34 -10 2 C-6.7 1.34 -3.4 0.68 0 0 Z " fill="#CACBCE" transform="translate(351,290)"/>
<path d="M0 0 C1.93166016 0.01740234 1.93166016 0.01740234 3.90234375 0.03515625 C5.19269531 0.04417969 6.48304688 0.05320313 7.8125 0.0625 C8.81152344 0.07410156 9.81054688 0.08570313 10.83984375 0.09765625 C10.83984375 0.42765625 10.83984375 0.75765625 10.83984375 1.09765625 C8.19984375 1.09765625 5.55984375 1.09765625 2.83984375 1.09765625 C2.50984375 2.08765625 2.17984375 3.07765625 1.83984375 4.09765625 C-0.16015625 3.09765625 -2.16015625 2.09765625 -4.16015625 1.09765625 C-3.16015625 0.09765625 -3.16015625 0.09765625 0 0 Z " fill="#21222A" transform="translate(331.16015625,203.90234375)"/>
<path d="M0 0 C0.66 0.66 1.32 1.32 2 2 C1.67 2.66 1.34 3.32 1 4 C0.34 4 -0.32 4 -1 4 C-1.33 5.32 -1.66 6.64 -2 8 C-2.33 7.34 -2.66 6.68 -3 6 C-3.99 6.99 -4.98 7.98 -6 9 C-6.66 8.67 -7.32 8.34 -8 8 C-6.50260417 6.79557292 -5.00520833 5.59114583 -3.5078125 4.38671875 C-1.74707893 2.87729455 -1.74707893 2.87729455 0 0 Z " fill="#2C2C2F" transform="translate(269,147)"/>
<path d="M0 0 C0.33 0 0.66 0 1 0 C1.33 2.64 1.66 5.28 2 8 C2.66 7.34 3.32 6.68 4 6 C4.99 6.33 5.98 6.66 7 7 C5.02 8.32 3.04 9.64 1 11 C0 10 0 10 -0.09765625 7.71484375 C-0.08605469 6.79832031 -0.07445312 5.88179687 -0.0625 4.9375 C-0.05347656 4.01839844 -0.04445312 3.09929687 -0.03515625 2.15234375 C-0.02355469 1.44207031 -0.01195312 0.73179687 0 0 Z " fill="#36363C" transform="translate(175,197)"/>
<path d="M0 0 C2.31 0 4.62 0 7 0 C7.33 0.66 7.66 1.32 8 2 C10.01669827 3.13350534 10.01669827 3.13350534 12 4 C11.34 4.66 10.68 5.32 10 6 C8.68 5.34 7.36 4.68 6 4 C6 3.34 6 2.68 6 2 C3.03 1.505 3.03 1.505 0 1 C0 0.67 0 0.34 0 0 Z " fill="#838890" transform="translate(333,192)"/>
<path d="M0 0 C-1.6232687 0.6708712 -3.24867578 1.33657029 -4.875 2 C-6.23238281 2.556875 -6.23238281 2.556875 -7.6171875 3.125 C-10 4 -10 4 -12 4 C-12 3.34 -12 2.68 -12 2 C-7.75950782 -0.82699479 -4.85416215 -1.37070821 0 0 Z " fill="#D8D8DD" transform="translate(69,361)"/>
<path d="M0 0 C0 0.66 0 1.32 0 2 C0.66 2.33 1.32 2.66 2 3 C0.1875 4.0625 0.1875 4.0625 -2 5 C-2.99 4.67 -3.98 4.34 -5 4 C-5 3.01 -5 2.02 -5 1 C-2 0 -2 0 0 0 Z " fill="#131319" transform="translate(108,321)"/>
<path d="M0 0 C2.475 0.495 2.475 0.495 5 1 C5 1.66 5 2.32 5 3 C6.65 3.33 8.3 3.66 10 4 C10 4.33 10 4.66 10 5 C4.60158311 5.49076517 4.60158311 5.49076517 1.625 3.0625 C0 1 0 1 0 0 Z " fill="#969BA5" transform="translate(346,270)"/>
<path d="M0 0 C2.97 0.495 2.97 0.495 6 1 C6 2.65 6 4.3 6 6 C5.34 6 4.68 6 4 6 C3.67 5.01 3.34 4.02 3 3 C1.68 3.33 0.36 3.66 -1 4 C-0.67 2.68 -0.34 1.36 0 0 Z " fill="#C9D0D7" transform="translate(385,213)"/>
<path d="M0 0 C0.99 0.33 1.98 0.66 3 1 C3 1.66 3 2.32 3 3 C3.99 3.33 4.98 3.66 6 4 C4.68 4 3.36 4 2 4 C1.67 4.99 1.34 5.98 1 7 C1 6.34 1 5.68 1 5 C0.01 4.67 -0.98 4.34 -2 4 C-1.34 4 -0.68 4 0 4 C-0.33 3.01 -0.66 2.02 -1 1 C-0.67 0.67 -0.34 0.34 0 0 Z " fill="#DFE6F4" transform="translate(341,197)"/>
<path d="M0 0 C3.3 0.33 6.6 0.66 10 1 C8.02 1.99 8.02 1.99 6 3 C5.01 3.66 4.02 4.32 3 5 C3 4.34 3 3.68 3 3 C2.01 2.67 1.02 2.34 0 2 C0 1.34 0 0.68 0 0 Z " fill="#89909D" transform="translate(346,196)"/>
<path d="M0 0 C0.66 0.33 1.32 0.66 2 1 C1.34 2.32 0.68 3.64 0 5 C-2.97 4.67 -5.94 4.34 -9 4 C-6.00084818 2.50042409 -3.16379181 1.08234983 0 0 Z " fill="#D4D5DA" transform="translate(261,127)"/>
<path d="M0 0 C1.32 0.66 2.64 1.32 4 2 C1.61426621 3.89213369 -0.07175348 5.02391783 -3 6 C-3 4.68 -3 3.36 -3 2 C-2.01 1.34 -1.02 0.68 0 0 Z " fill="#E1E1E5" transform="translate(158,308)"/>
<path d="M0 0 C2.31 0.33 4.62 0.66 7 1 C6.34 2.32 5.68 3.64 5 5 C4.01 5 3.02 5 2 5 C1.34 3.35 0.68 1.7 0 0 Z " fill="#B0B5BC" transform="translate(356,275)"/>
<path d="M0 0 C0.763125 0.061875 1.52625 0.12375 2.3125 0.1875 C2.3125 0.8475 2.3125 1.5075 2.3125 2.1875 C2.9725 2.1875 3.6325 2.1875 4.3125 2.1875 C3.9825 2.8475 3.6525 3.5075 3.3125 4.1875 C0.3425 3.8575 -2.6275 3.5275 -5.6875 3.1875 C-2.6875 0.1875 -2.6875 0.1875 0 0 Z " fill="#D8DCE6" transform="translate(342.6875,215.8125)"/>
<path d="M0 0 C-1.32 0.33 -2.64 0.66 -4 1 C-4 2.32 -4 3.64 -4 5 C-4.99 5 -5.98 5 -7 5 C-7.33 5.66 -7.66 6.32 -8 7 C-7.625 4.0625 -7.625 4.0625 -7 1 C-4.53721199 -0.231394 -2.7204945 -0.07159196 0 0 Z " fill="#303033" transform="translate(243,215)"/>
<path d="M0 0 C2.475 0.495 2.475 0.495 5 1 C5 1.99 5 2.98 5 4 C5.66 4 6.32 4 7 4 C7 4.66 7 5.32 7 6 C7.66 6 8.32 6 9 6 C8.67 6.99 8.34 7.98 8 9 C6 7.1875 6 7.1875 4 5 C4 4.01 4 3.02 4 2 C2.68 1.67 1.36 1.34 0 1 C0 0.67 0 0.34 0 0 Z " fill="#797882" transform="translate(378,198)"/>
<path d="M0 0 C2.31 1.98 4.62 3.96 7 6 C6.34 6.66 5.68 7.32 5 8 C5 7.34 5 6.68 5 6 C3.68 5.67 2.36 5.34 1 5 C0.67 3.35 0.34 1.7 0 0 Z " fill="#222328" transform="translate(209,359)"/>
<path d="M0 0 C0.99 0.66 1.98 1.32 3 2 C0.69 3.32 -1.62 4.64 -4 6 C-4.33 5.01 -4.66 4.02 -5 3 C-3.35 2.01 -1.7 1.02 0 0 Z " fill="#15151C" transform="translate(149,299)"/>
<path d="M0 0 C1.2065625 0.0309375 1.2065625 0.0309375 2.4375 0.0625 C2.4375 0.7225 2.4375 1.3825 2.4375 2.0625 C3.0975 2.3925 3.7575 2.7225 4.4375 3.0625 C2.6875 3.75 2.6875 3.75 0.4375 4.0625 C-1.8125 2.625 -1.8125 2.625 -3.5625 1.0625 C-2.5625 0.0625 -2.5625 0.0625 0 0 Z " fill="#DEE5F0" transform="translate(401.5625,292.9375)"/>
<path d="M0 0 C0.66 0.33 1.32 0.66 2 1 C2.625 3.0625 2.625 3.0625 3 5 C2.01 5.66 1.02 6.32 0 7 C-0.38133299 5.0085944 -0.71325582 3.00720923 -1 1 C-0.67 0.67 -0.34 0.34 0 0 Z " fill="#232328" transform="translate(135,237)"/>
<path d="M0 0 C0.33 0.99 0.66 1.98 1 3 C-4.625 7 -4.625 7 -8 7 C-6.71034824 5.62437146 -5.37310707 4.29233607 -4 3 C-3.34 3 -2.68 3 -2 3 C-2 2.34 -2 1.68 -2 1 C-1.34 0.67 -0.68 0.34 0 0 Z " fill="#CCCDD0" transform="translate(166,217)"/>
<path d="M0 0 C2.64 0 5.28 0 8 0 C7.01 0.33 6.02 0.66 5 1 C5 1.99 5 2.98 5 4 C2.525 3.01 2.525 3.01 0 2 C0 1.34 0 0.68 0 0 Z " fill="#7B8590" transform="translate(319,205)"/>
<path d="M0 0 C1.65 0 3.3 0 5 0 C5.33 0.66 5.66 1.32 6 2 C3.35261084 3.4606285 2.10551666 4 -1 4 C-0.67 2.68 -0.34 1.36 0 0 Z " fill="#EBEFF6" transform="translate(17,348)"/>
<path d="M0 0 C1.98 0 3.96 0 6 0 C6.33 1.32 6.66 2.64 7 4 C4.625 3.6875 4.625 3.6875 2 3 C1.34 2.01 0.68 1.02 0 0 Z " fill="#1E1F23" transform="translate(215,338)"/>
<path d="M0 0 C1.32 0 2.64 0 4 0 C4.33 1.32 4.66 2.64 5 4 C3.35 4 1.7 4 0 4 C-0.33 3.01 -0.66 2.02 -1 1 C-0.67 0.67 -0.34 0.34 0 0 Z " fill="#EAEFF6" transform="translate(425,315)"/>
<path d="M0 0 C2 1.375 2 1.375 4 3 C4 3.66 4 4.32 4 5 C4.99 5.33 5.98 5.66 7 6 C6.34 6 5.68 6 5 6 C5 6.66 5 7.32 5 8 C4.34 8 3.68 8 3 8 C0 2.25 0 2.25 0 0 Z " fill="#B7BCC5" transform="translate(415,298)"/>
<path d="M0 0 C0.33 0 0.66 0 1 0 C1.99 3.96 2.98 7.92 4 12 C0 8 0 8 -0.390625 5.859375 C-0.26041667 3.90625 -0.13020833 1.953125 0 0 Z " fill="#BEBEC1" transform="translate(185,296)"/>
<path d="M0 0 C5.445 1.485 5.445 1.485 11 3 C6.80104745 4.04973814 4.20594226 3.72795155 0 3 C0 2.01 0 1.02 0 0 Z " fill="#91949D" transform="translate(309,258)"/>
<path d="M0 0 C0.625 1.875 0.625 1.875 1 4 C0.34 4.66 -0.32 5.32 -1 6 C-3.625 5.625 -3.625 5.625 -6 5 C-4.06745228 2.9754262 -2.36841312 1.57894208 0 0 Z " fill="#D3D5DE" transform="translate(126,251)"/>
<path d="M0 0 C0.66 0.33 1.32 0.66 2 1 C2 1.66 2 2.32 2 3 C3.32 3.33 4.64 3.66 6 4 C-0.0546875 4.1953125 -0.0546875 4.1953125 -2 4 C-2.66 3.34 -3.32 2.68 -4 2 C-2.68 2 -1.36 2 0 2 C0 1.34 0 0.68 0 0 Z " fill="#CBCACF" transform="translate(4,370)"/>
<path d="M0 0 C-0.66 0.66 -1.32 1.32 -2 2 C-2.33 1.67 -2.66 1.34 -3 1 C-4.66617115 0.95936168 -6.33388095 0.957279 -8 1 C-8 0.34 -8 -0.32 -8 -1 C-4.59745511 -2.2151946 -3.06748874 -1.86240388 0 0 Z " fill="#CDCED5" transform="translate(425,314)"/>
<path d="M0 0 C2.31 0 4.62 0 7 0 C7 0.99 7 1.98 7 3 C5.02 3 3.04 3 1 3 C0.67 2.01 0.34 1.02 0 0 Z " fill="#C1C2D4" transform="translate(367,288)"/>
<path d="M0 0 C0 0.66 0 1.32 0 2 C-0.99 2.33 -1.98 2.66 -3 3 C-3.33 3.99 -3.66 4.98 -4 6 C-4.66 6 -5.32 6 -6 6 C-6 5.34 -6 4.68 -6 4 C-6.66 3.34 -7.32 2.68 -8 2 C-2.25 0 -2.25 0 0 0 Z " fill="#535257" transform="translate(108,251)"/>
<path d="M0 0 C2.475 0.495 2.475 0.495 5 1 C5.33 2.65 5.66 4.3 6 6 C5.67 5.01 5.34 4.02 5 3 C4.01 3.33 3.02 3.66 2 4 C1.34 2.68 0.68 1.36 0 0 Z " fill="#E3E7EC" transform="translate(331,212)"/>
<path d="M0 0 C2.64 0 5.28 0 8 0 C7.67 0.99 7.34 1.98 7 3 C2.25 2.25 2.25 2.25 0 0 Z " fill="#AFB2BD" transform="translate(356,198)"/>
<path d="M0 0 C2.31 0 4.62 0 7 0 C7 0.99 7 1.98 7 3 C4.69 2.67 2.38 2.34 0 2 C0 1.34 0 0.68 0 0 Z " fill="#E3E6F0" transform="translate(313,193)"/>
<path d="M0 0 C0.66 0.99 1.32 1.98 2 3 C1.25 4.9375 1.25 4.9375 0 7 C-2.125 7.75 -2.125 7.75 -4 8 C-3.34 6.68 -2.68 5.36 -2 4 C-1.34 4 -0.68 4 0 4 C0 2.68 0 1.36 0 0 Z " fill="#D7D6DB" transform="translate(159,178)"/>
</svg>
